<svg xmlns="http://www.w3.org/2000/svg" id="canvas" width="1000" height="500" style="display: block; margin: 0 auto; background-color: white; cursor: default;"><circle id="circle6815f3af-8f1a-4f27-8ef7-b67c6192965a" cx="90" cy="108" r="4" fill="#000000" style="pointer-events: none;"/><path id="6815f3af-8f1a-4f27-8ef7-b67c6192965a" d="M 90 108 L 90 108.25 L 90 108.9375 L 90 109.953125 L 89.75 111.46484375 L 89.5625 113.3486328125 L 89.171875 115.511474609375 L 88.87890625 118.13360595703125 L 88.6591796875 121.10020446777344 L 88.244384765625 124.32515335083008 L 87.93328857421875 127.74386501312256 L 87.69996643066406 131.30789875984192 L 87.52497482299805 134.73092406988144 L 87.39373111724854 138.04819305241108 L 87.2952983379364 141.2861447893083 L 87.2214737534523 144.46460859198123 L 87.16610531508923 147.34845644398592 L 87.12457898631692 150.26134233298944 L 87.09343423973769 153.19600674974208 L 87.07007567980327 155.89700506230656 L 87.05255675985245 158.42275379672992 L 87.03941756988934 161.06706534754744 L 87.029563177417 163.55029901066058 L 87.02217238306275 165.66272425799542 L 87.01662928729706 167.74704319349655 L 87.0124719654728 169.8102823951224 L 87.0093539741046 171.60771179634182 L 87.00701548057845 173.20578384725636 L 87.00526161043383 174.65433788544226 L 87.00394620782538 175.9907534140817 L 87.00295965586903 177.24306506056126 L 87.00221974190177 178.43229879542093 L 87.00166480642633 179.5742240965657 L 87.00124860481975 180.43066807242428 L 87.00093645361481 181.3230010543182 L 87.0007023402111 182.24225079073867 L 87.00052675515833 183.181688093054 L 87.00039506636875 184.1362660697905 L 86.75029629977656 185.10219955234288 L 86.56272222483243 186.07664966425716 L 86.42204166862432 187.05748724819287 L 86.31653125146823 188.04311543614466 L 86.23739843860118 188.78233657710848 L 86.17804882895088 189.58675243283136 L 86.13353662171316 190.4400643246235 L 86.10015246628487 191.08004824346762 L 86.07511434971366 191.8100361826007 L 86.05633576228524 192.60752713695052 L 86.04225182171393 193.4556453527129 L 86.03168886628545 194.09173401453467 L 86.02376664971409 194.81880051090099 L 86.01782498728556 195.36410038317575 L 86.01336874046417 196.0230752873818 L 86.01002655534813 196.51730646553636 L 86.0075199165111 196.88797984915226 L 86.00563993738332 197.41598488686418 L 86.0042299530375 198.06198866514814 L 86.00317246477812 198.5464914988611 L 86.00237934858359 199.15986862414582 L 86.00178451143769 199.61990146810936 L 86.00133838357827 200.21492610108203 L 86.0010037876837 200.66119457581152 L 86.00075284076277 201.24589593185863 L 86.00056463057209 201.68442194889397 L 86.00042347292907 202.01331646167048 L 86.0003176046968 202.25998734625287 L 86.0002382035226 202.44499050968966 L 86.00017865264195 202.58374288226725 L 86.00013398948147 202.18780716170045 L 86.0001004921111 201.39085537127534" fill="transparent" stroke="#000000" stroke-width="8" stroke-linejoin="round" stroke-linecap="round" style="pointer-events: none;"/><circle id="circle9f391822-68cb-42b1-a96d-1d0acdad541d" cx="90" cy="107" r="4" fill="#000000" style="pointer-events: none;"/><path id="9f391822-68cb-42b1-a96d-1d0acdad541d" d="M 90 107 L 89.75 107 L 89.5625 107 L 89.421875 107 L 89.31640625 107 L 89.2373046875 107 L 89.177978515625 107 L 89.13348388671875 107 L 89.10011291503906 107 L 89.0750846862793 107 L 89.05631351470947 107 L 89.0422351360321 107 L 89.03167635202408 107 L 89.02375726401806 107 L 89.01781794801354 107 L 89.01336346101016 107 L 89.01002259575762 107 L 89.00751694681821 107 L 89.00563771011366 107 L 89.00422828258525 107 L 89.00317121193893 107 L 89.0023784089542 107 L 89.25178380671565 107 L 89.43883785503674 107 L 89.82912839127755 107 L 90.37184629345816 107 L 90.77888472009363 107 L 91.33416354007022 107 L 92.00062265505267 107 L 92.5004669912895 107 L 93.12535024346712 107 L 93.59401268260035 107 L 94.19550951195026 107 L 94.8966321339627 107 L 95.67247410047202 107 L 96.25435557535401 107 L 96.94076668151551 107 L 97.70557501113663 107 L 98.27918125835248 107 L 98.95938594376436 107 L 99.46953945782327 107 L 100.10215459336746 107 L 100.5766159450256 107 L 101.1824619587692 107 L 101.8868464690769 107 L 102.41513485180768 107 L 103.06135113885576 107 L 103.54601335414182 107 L 104.15951001560637 107 L 104.61963251170478 107 L 105.21472438377859 107 L 105.91104328783393 107 L 106.68328246587545 107 L 107.26246184940659 107 L 107.94684638705495 107 L 108.4601347902912 107 L 109.09510109271841 107 L 109.8213258195388 107 L 110.8659943646541 107 L 111.89949577349057 107 L 112.92462183011793 107 L 113.69346637258845 107 L 114.52009977944134 107 L 115.140074834581 107 L 115.85505612593575 107 L 116.39129209445181 107 L 117.04346907083885 107 L 117.78260180312914 107 L 118.58695135234686 107 L 119.19021351426014 107 L 119.89266013569511 107 L 120.66949510177133 107 L 121.5021213263285 107 L 122.37659099474638 107 L 123.03244324605978 107 L 123.77433243454485 107 L 124.58074932590864 107 L 125.18556199443148 107 L 125.8891714958236 107 L 126.66687862186771 107 L 127.75015896640079 107 L 128.81261922480059 107 L 129.85946441860045 107 L 130.89459831395033 107 L 131.92094873546273 106.75 L 132.94071155159705 106.5625 L 133.9555336636978 106.421875 L 134.96665024777334 106.31640625 L 135.72498768583 106.2373046875 L 136.5437407643725 106.177978515625 L 137.40780557327938 106.13348388671875 L 138.30585417995954 106.10011291503906 L 139.22939063496966 106.0750846862793 L 140.17204297622726 106.05631351470947 L 141.12903223217046 106.0422351360321 L 142.09677417412786 106.03167635202408 L 143.0725806305959 105.77375726401806 L 144.05443547294692 105.58031794801354 L 145.0408266047102 105.43523846101016 L 146.03061995353264 105.32642884575762 L 147.02296496514947 105.24482163431821 L 148.01722372386212 105.18361622573866 L 149.0129177928966 105.137712169304 L 150.00968834467244 105.103284126978 L 151.00726625850433 105.0774630952335 L 152.00544969387823 105.05809732142512 L 153.25408727040866 105.04357299106884 L 154.69056545280648 104.78267974330163 L 156.26792408960486 104.58700980747622 L 157.95094306720364 104.44025735560717 L 159.71320730040273 104.33019301670538 L 161.53490547530205 104.24764476252903 L 163.15117910647655 104.18573357189678 L 164.6133843298574 103.88930017892258 L 165.96003824739307 103.66697513419194 L 167.2200286855448 103.50023135064396 L 168.1650215141586 103.37517351298297 L 168.87376613561895 103.28138013473722 L 169.6553246017142 103.21103510105291 L 170.49149345128563 103.15827632578969 L 171.36862008846424 103.11870724434226 L 172.27646506634818 103.0890304332567 L 173.45734879976112 103.06677282494252 L 174.84301159982084 103.05007961870689 L 176.38225869986564 103.03755971403017 L 178.03669402489925 103.02816978552262 L 179.52752051867444 103.02112733914197 L 180.89564038900582 103.01584550435648 L 182.17173029175436 103.01188412826735 L 183.12879771881578 103.00891309620052 L 184.09659828911182 103.00668482215039 L 184.82244871683386 103.00501361661279 L 185.6168365376254 103.00376021245958 L 186.21262740321905 103.00282015934468 L 186.9094705524143 103.00211511950852 L 187.68210291431072 103.00158633963139 L 188.51157718573305 103.00118975472354 L 189.6336828892998 103.00089231604265 L 190.72526216697486 103.00066923703199 L 191.79394662523114 103.000501927774 L 192.84545996892336 103.0003764458305 L 193.88409497669252 103.00028233437287 L 194.9130712325194 103.00021175077966 L 195.93480342438954 103.00015881308474 L 196.95110256829216 103.00011910981355 L 197.9633269262191 103.00008933236016 L 198.97249519466433 103.00006699927012 L 199.97937139599824 103.00005024945258 L 200.9845285469987 103.00003768708945 L 202.238396410249 103.00002826531708 L 203.42879730768675 103.00002119898781 L 204.82159798076506 103.00001589924085 L 206.1161984855738 103.00001192443064 L 207.58714886418034 103.00000894332298 L 208.94036164813525 102.75000670749223 L 210.20527123610145 102.56250503061918 L 211.1539534270761 102.42187877296439 L 212.11546507030707 102.31640907972329 L 213.0865988027303 102.23730680979247 L 214.0649491020477 102.17798010734435 L 215.0487118265358 102.13348508050827 L 216.28653386990186 102.1001138103812 L 217.7149004024264 102.0750853577859 L 219.2861753018198 102.05631401833942 L 220.96463147636484 102.04223551375456 L 222.47347360727363 102.03167663531592 L 224.10510520545523 102.02375747648694 L 225.57882890409144 102.0178181073652 L 226.93412167806858 102.0133635805239 L 227.95059125855144 102.01002268539293 L 228.9629434439136 102.0075170140447 L 229.7222075829352 102.00563776053352 L 230.5416556872014 102.00422832040013 L 231.40624176540103 102.0031712403001 L 232.55468132405076 102.00237843022508 L 233.66601099303807 102.00178382266881 L 234.99950824477855 101.75133786700161 L 236.49963118358392 101.56350340025121 L 238.12472338768794 101.42262755018841 L 239.59354254076595 101.31697066264131 L 240.94515690557446 101.23772799698098 L 242.20886767918086 101.17829599773573 L 243.40665075938563 101.1337219983018 L 244.3049880695392 101.10029149872635 L 245.22874105215442 101.07521862404477 L 246.1715557891158 101.05641396803358 L 246.87866684183686 101.0423104760252 L 247.90900013137764 101.0317328570189 L 248.93175009853323 101.02379964276417 L 250.19881257389991 101.26784973207313 L 251.39910943042494 101.45088729905484 L 252.79933207281871 101.58816547429113 L 254.09949905461403 101.69112410571834 L 255.32462429096051 101.76834307928875 L 256.4934682182204 101.82625730946657 L 257.6201011636653 101.86969298209993 L 258.46507587274897 101.90226973657495 L 259.34880690456174 101.92670230243121 L 260.0116051784213 102.19502672682341 L 260.758703883816 102.39627004511756 L 261.319027912862 102.54720253383817 L 262.23927093464647 102.66040190037863 L 263.1794532009849 102.74530142528397 L 264.38458990073866 102.80897606896298 L 265.53844242555397 102.85673205172223 L 266.9038318191655 102.89254903879167 L 268.1778738643741 102.91941177909375 L 269.38340539828056 102.93955883432031 L 270.53755404871043 102.95466912574022 L 271.4031655365328 102.96600184430517 L 272.0523741523996 102.97450138322887 L 272.7892806142997 102.98087603742165 L 273.34196046072475 102.98565702806624 L 274.00647034554356 102.98924277104967 L 274.50485275915764 102.99193207828725 L 275.12863956936826 102.99394905871543 L 276.0964796770262 102.99546179403657 L 277.0723597577696 102.99659634552742 L 278.0542698183272 102.74744725914556 L 279.0407023637454 102.56058544435916 L 280.0305267728091 102.42043908326937 L 281.0228950796068 102.31532931245204 L 281.76717130970513 102.23649698433903 L 282.57537848227884 102.17737273825426 L 283.1815338617091 102.1330295536907 L 283.63615039628183 102.09977216526804 L 284.22711279721136 102.07482912395102 L 284.92033459790855 102.05612184296326 L 285.6902509484314 102.04209138222245 L 286.76768821132356 102.03156853666684 L 287.8257661584927 102.02367640250013 L 289.11932461886954 102.0177573018751 L 290.33949346415216 102.01331797640631 L 291.5046200981141 102.00998848230473 L 292.6284650735856 102.00749136172855 L 293.47134880518917 102.00561852129641 L 294.3535116038919 102.00421389097231 L 295.2651337029189 102.00316041822923 L 296.1988502771892 102.00237031367192 L 297.3991377078919 102.00177773525394 L 298.5493532809189 102.00133330144045 L 299.9120149606892 102.00099997608034 L 301.4340112205169 102.00074998206026 L 303.0755084153877 102.00056248654519 L 304.80663131154074 102.0004218649089 L 306.35497348365556 102.00031639868168 L 308.01623011274165 102.00023729901126 L 309.51217258455625 102.00017797425845 L 310.8841294384172 102.00013348069383 L 312.1630970788129 102.00010011052038 L 313.3723228091097 102.00007508289028 L 314.52924210683227 102.00005631216771 L 315.8969315801242 102.00004223412579 L 317.17269868509317 102.00003167559434 L 318.6295240138199 102.00002375669575 L 320.2221430103649 102.00001781752181 L 321.91660725777365 102.00001336314136 L 323.43745544333024 102.00001002235602 L 324.8280915824977 102.00000751676701 L 326.1210686868733 102.00000563757526 L 327.34080151515496 102.00000422818144 L 328.50560113636624 102.00000317113609 L 329.62920085227466 102.00000237835206 L 330.721900639206 102.00000178376405 L 331.7914254794045 102.00000133782304 L 332.84356910955336 102.00000100336727 L 334.13267683216503 102.00000075252545 L 335.59950762412376 101.75000056439409 L 336.9496307180928 101.56250042329556 L 338.2122230385696 101.42187531747167 L 339.4091672789272 101.31640648810375 L 340.5568754591954 101.2373048660778 L 341.66765659439653 101.17797864955836 L 342.7507424457974 101.13348398716877 L 343.56305683434806 101.10011299037657 L 344.42229262576103 101.07508474278242 L 345.3167194693208 101.05631355708681 L 346.2375396019906 101.04223516781511 L 346.92815470149293 101.03167637586134 L 347.6961160261197 100.773757281896 L 348.5220870195898 100.580317961422 L 349.1415652646923 100.4352384710665 L 349.8561739485192 100.32642885329987 L 350.6421304613894 100.2448216399749 L 351.23159784604206 100.18361622998117 L 351.9236983845316 100.13771217248588 L 352.69277378839865 100.10328412936441 L 353.269580341299 100.07746309702331 L 353.95218525597426 100.05809732276748 L 354.4641389419807 100.04357299207561 L 355.0981042064855 100.03267974405671 L 355.57357815486415 100.02450980804252 L 356.1801836161481 100.01838235603189 L 356.6351377121111 100.01378676702392 L 356.9763532840833 100.01034007526793 L 357.48226496306245 100.00775505645095 L 358.11169872229686 100.00581629233821 L 358.8337740417227 100.00436221925366 L 359.375330531292 100.00327166444025 L 360.03149789846896 100.00245374833018 L 360.77362342385175 100.00184031124763 L 361.5802175678888 100.00138023343573 L 362.1851631759166 100.0010351750768 L 362.88887238193746 100.00077638130759 L 363.6666542864531 100.0005822859807 L 364.2499907148398 100.00043671448552 L 364.9374930361298 100.00032753586413 L 365.45311977709736 100.0002456518981 L 366.08983983282303 100.00018423892357 L 366.81737987461725 100.00013817919267 L 367.61303490596293 100.0001036343945 L 368.4597761794722 100.25007772579588 L 369.0948321346042 100.4375582943469 L 369.82112410095317 100.57816872076017 L 370.3658430757149 100.68362654057013 L 371.02438230678615 100.7627199054276 L 371.5182867300896 100.8220399290707 L 371.8887150475672 100.86652994680303 L 372.4165362856754 101.14989746010227 L 372.81240221425657 101.36242309507671 L 373.10930166069244 101.52181732130754 L 373.58197624551934 101.64136299098065 L 373.9364821841395 101.73102224323549 L 374.2023616381046 101.79826668242661 L 374.65177122857847 101.84870001181996 L 374.9888284214338 101.88652500886496 L 375.49162131607534 101.91489375664872 L 375.8687159870565 101.93617031748654 L 376.15153699029236 101.95212773811491 L 376.3636527427193 101.96409580358619 L 376.5227395570395 101.97307185268964 L 376.6420546677796 101.97980388951723 L 376.7315410008347 101.98485291713791 L 376.79865575062604 101.98863968785344 L 377.09899181296953 101.99147976589008 L 377.3242438597272 101.99360982441756 L 377.4931828947954 101.99520736831317 L 377.61988717109654 101.99640552623488 L 377.7149153783224 101.99730414467616 L 377.7861865337418 101.99797810850713 L 377.83963990030634 101.99848358138034 L 377.87972992522975 101.99886268603525 L 377.90979744392234 101.99914701452644 L 377.93234808294176 101.99936026089483 L 377.94926106220635 101.99952019567112 L 377.96194579665473 101.99964014675334 L 377.9714593474911 101.999730110065 L 377.97859451061834 101.99979758254875 L 377.9839458829638 101.99984818691156 L 377.98795941222284 102.24988614018368 L 377.9909695591671 102.43741460513776 L 377.99322716937536 102.57806095385332 L 377.9949203770315 102.68354571539 L 377.9961902827736 103.0126592865425 L 378.24714271208023 103.50949446490688 L 378.4353570340602 103.88212084868016 L 378.57651777554514 104.41159063651011 L 378.68238833165884 105.05869297738258 L 378.76179124874415 105.79401973303693 L 378.8213434365581 106.3455147997777 L 378.8660075774186 107.00913609983328 L 378.8995056830639 107.75685207487496 L 378.9246292622979 108.56763905615622 L 378.94347194672343 109.42572929211717 L 378.95760396004255 110.06929696908787 L 378.96820297003194 110.8019727268159 L 378.9761522275239 111.60147954511193 L 378.98211417064294 112.45110965883394 L 378.9865856279822 113.33833224412545 L 378.9899392209867 114.25374918309409 L 378.99245441574 115.19031188732056 L 378.994340811805 116.39273391549042 L 378.99575560885376 117.54455043661781 L 378.9968167066403 118.65841282746337 L 378.9976125299802 120.24380962059752 L 378.99820939748514 121.68285721544814 L 378.99865704811384 123.0121429115861 L 378.9989927860854 124.25910718368957 L 378.99924458956406 125.69433038776717 L 378.99943344217303 127.02074779082537 L 378.99957508162976 128.26556084311903 L 378.99968131122233 129.44917063233927 L 378.99976098341676 130.58687797425446 L 378.9998207375626 131.69015848069085 L 378.99986555317196 132.76761886051816 L 378.99989916487897 133.82571414538862 L 378.9999243736592 134.86928560904147 L 378.9999432802444 135.9019642067811 L 378.9999574601833 136.92647315508583 L 378.99996809513743 137.94485486631436 L 378.9999760713531 138.95864114973577 L 378.9999820535148 139.71898086230183 L 378.9999865401361 140.53923564672638 L 378.9999899051021 141.40442673504478 L 378.99999242882654 142.05332005128358 L 378.9999943216199 142.7899900384627 L 378.99999574121495 143.342492528847 L 378.9999968059112 144.00686939663524 L 378.9999976044334 144.50515204747643 L 378.99999820332505 145.1288640356073 L 378.9999986524938 145.59664802670548 L 379.24999898937034 146.19748602002912 L 379.43749924202774 146.89811451502183 L 379.5781244315208 147.67358588626638 L 379.6835933236406 148.50518941469977 L 379.7626949927304 149.37889206102483 L 380.07202124454784 150.03416904576864 L 380.3040159334109 150.77562678432648 L 380.47801195005815 151.58172008824485 L 380.6085089625436 152.43629006618363 L 380.70638172190775 153.32721754963774 L 381.0297862914308 153.99541316222832 L 381.2723397185731 154.74655987167125 L 381.4542547889298 155.30991990375344 L 381.59069109169735 155.98243992781508 L 381.693018318773 156.4868299458613 L 381.76976373907974 157.115122459396 L 381.8273228043098 157.836341844547 L 381.8704921032323 158.62725638341027 L 381.90286907742427 159.22044228755772 L 381.9271518080682 159.9153317156683 L 382.19536385605113 160.6864987867512 L 382.3965228920383 161.51487409006342 L 382.54739216902874 162.13615556754758 L 382.6605441267716 162.85211667566068 L 382.7454080950787 163.3890875067455 L 382.809056071309 164.04181563005915 L 382.85679205348174 164.78136172254437 L 382.8925940401113 165.33602129190828 L 382.91944553008346 166.0020159689312 L 382.9395841475626 166.5015119766984 L 382.95468811067195 167.1261339825238 L 382.966016083004 167.84460048689286 L 382.974512062253 168.38345036516964 L 382.98088404668977 169.03758777387722 L 383.2356630350173 169.7781908304079 L 383.426747276263 170.33364312280594 L 383.5700604571972 171.00023234210445 L 383.67754534289793 171.50017425657833 L 383.75815900717345 171.87513069243374 L 383.8186192553801 172.40634801932532 L 383.8639644415351 173.05476101449398 L 383.8979733311513 173.54107076087047 L 383.9234799983635 174.15580307065284 L 383.94260999877264 174.86685230298963 L 383.95695749907946 175.65013922724222 L 384.2177181243096 176.48760442043167 L 384.4132885932322 177.36570331532374 L 384.55996644492416 178.2742774864928 L 384.6699748336931 179.2057081148696 L 384.7524811252698 180.1542810861522 L 384.8143608439524 181.11571081461415 L 385.1107706329643 181.8367831109606 L 385.3330779747232 182.62758733322045 L 385.4998084810424 183.47069049991535 L 385.6248563607818 184.3530178749365 L 385.7186422705863 185.26476340620238 L 385.78898170293974 186.19857255465178 L 385.8417362772048 186.89892941598885 L 385.8813022079036 187.67419706199163 L 385.9109766559277 188.50564779649372 L 385.9332324919458 189.1292358473703 L 385.94992436895933 189.84692688552772 L 385.9624432767195 190.38519516414578 L 385.9718324575396 191.03889637310934 L 385.9788743431547 191.529172279832 L 385.984155757366 192.14687920987402 L 385.98811681802454 192.61015940740552 L 385.9910876135184 193.20761955555415 L 385.9933157101388 193.6557146666656 L 385.9949867826041 194.2417859999992 L 385.9962400869531 194.6813394999994 L 385.9971800652148 195.01100462499954 L 385.99788504891114 195.50825346874967 L 385.9984137866834 195.88119010156225 L 385.99881034001254 196.1608925761717 L 385.9991077550094 196.62066943212878 L 385.99933081625704 196.96550207409658 L 385.9994981121928 197.47412655557244 L 385.9996235841446 197.85559491667934 L 385.9997176881085 198.3916961875095 L 385.9997882660814 198.79377214063211 L 385.99984119956105 199.3453291054741 L 385.99988089967076 199.75899682910557 L 385.9999106747531 200.31924762182916 L 385.9999330060648 200.73943571637187 L 385.9999497545486 201.3045767872789 L 385.99996231591143 201.9784325904592 L 385.99997173693356 202.4838244428444 L 385.9999788027002 202.8628683321333 L 385.9999841020251 203.39715124909998 L 385.99998807651883 203.79786343682497 L 385.99999105738914 204.09839757761873 L 385.9999932930418 204.32379818321405 L 385.99999496978137 204.49284863741053 L 385.99999622733606 204.61963647805788 L 385.74999717050207 204.46472735854343 L 385.3124978778766 204.09854551890757" fill="transparent" stroke="#000000" stroke-width="8" stroke-linejoin="round" stroke-linecap="round" style="pointer-events: none;"/><circle id="circle9d8e8dd2-5899-429a-90c2-46097c9961dc" cx="89" cy="204" r="4" fill="#000000" style="pointer-events: none;"/><path id="9d8e8dd2-5899-429a-90c2-46097c9961dc" d="M 89 204 L 88.75 204 L 88.5625 204 L 88.421875 204 L 88.31640625 204 L 88.2373046875 204 L 88.177978515625 204 L 88.13348388671875 204 L 88.10011291503906 204 L 88.0750846862793 204 L 88.05631351470947 204 L 88.0422351360321 204 L 88.03167635202408 204 L 88.02375726401806 204 L 88.01781794801354 204 L 88.01336346101016 204 L 88.01002259575762 204 L 88.00751694681821 204 L 88.00563771011366 204 L 88.00422828258525 204 L 88.25317121193893 204 L 88.6898784089542 204 L 89.26740880671565 204 L 90.20055660503674 204.25 L 91.15041745377755 204.4375 L 92.36281309033316 204.578125 L 93.52210981774988 204.68359375 L 94.89158236331241 204.7626953125 L 96.4186867724843 204.822021484375 L 98.06401507936323 204.86651611328125 L 99.79801130952242 204.89988708496094 L 101.34850848214182 204.9249153137207 L 103.01138136160637 204.94368648529053 L 104.50853602120478 204.9577648639679 L 106.13140201590357 204.96832364797592 L 107.84855151192768 204.97624273598194 L 109.63641363394576 204.98218205198646 L 111.47731022545932 204.98663653898984 L 113.3579826690945 204.98997740424238 L 115.26848700182087 204.9924830531818 L 117.45136525136566 204.99436228988634 L 119.58852393852425 204.99577171741475 L 121.94139295389319 204.99682878806107 L 124.45604471541989 204.9976215910458 L 126.84203353656491 204.99821619328435 L 129.13152515242368 204.99866214496325 L 131.34864386431775 204.99899660872245 L 133.2614828982383 204.99924745654184 L 135.19611217367873 204.99943559240637 L 136.89708413025903 204.99957669430478 L 138.67281309769427 204.99968252072858 L 140.5046098232707 204.99976189054644 L 142.62845736745302 204.99982141790983 L 144.97134302558976 204.99986606343236 L 147.47850726919233 204.74989954757427 L 150.10888045189427 204.5624246606807 L 153.0816603389207 204.17181849551054 L 156.0612452541905 203.87886387163292 L 158.7959339406429 203.6591479037247 L 161.34695045548216 203.4943609277935 L 163.51021284161163 203.37077069584512 L 165.38265963120872 203.27807802188386 L 167.03699472340654 203.2085585164129 L 168.5277460425549 203.15641888730966 L 169.89580953191617 203.11731416548224 L 171.42185714893714 203.0879856241117 L 172.81639286170287 203.06598921808376 L 174.36229464627715 203.0494919135628 L 176.02172098470785 203.0371189351721 L 177.7662907385309 202.77783920137907 L 179.32471805389818 202.5833794010343 L 180.99353854042363 202.43753455077572 L 182.49515390531772 202.3281509130818 L 183.6213654289883 202.24611318481135 L 184.71602407174123 202.18458488860853 L 185.78701805380592 202.1384386664564 L 186.84026354035444 202.1038289998423 L 187.88019765526582 202.07787174988172 L 189.16014824144935 202.05840381241129 L 190.620111181087 202.04380285930847 L 192.21508338581526 202.03285214448135 L 193.91131253936146 202.02463910836101 L 195.6834844045211 202.01847933127075 L 197.26261330339082 202.01385949845306 L 198.94695997754312 202.0103946238398 L 200.46021998315734 201.75779596787984 L 201.845164987368 201.5683469759099 L 202.883873740526 201.42626023193242 L 203.9129053053945 201.3196951739493 L 204.68467897904588 201.23977138046197 L 205.5135092342844 201.17982853534647 L 206.38513192571332 201.13487140150986 L 207.288848944285 201.1011535511324 L 208.21663670821374 201.0758651633493 L 209.4124775311603 201.05689887251197 L 210.55935814837022 201.04267415438397 L 211.91951861127768 201.03200561578797 L 213.18963895845826 201.02400421184097 L 214.39222921884368 201.01800315888073 L 215.54417191413276 201.01350236916056 L 216.65812893559956 201.01012677687044 L 217.4935967016997 201.0075950826528 L 218.37019752627475 201.0056963119896 L 219.27764814470606 201.0042722339922 L 220.20823610852955 201.00320417549415 L 221.15617708139717 201.0024031316206 L 222.3671328110479 201.00180234871544 L 223.77534960828592 201.00135176153657 L 225.08151220621443 200.7510138211524 L 226.5611341546608 200.56326036586432 L 227.92085061599562 200.42244527439823 L 229.1906379619967 200.31683395579867 L 230.14297847149754 200.237625466849 L 231.10723385362314 200.17821910013674 L 232.08042539021736 200.13366432510256 L 233.06031904266302 200.1002482438269 L 234.04523928199728 200.0751861828702 L 235.28392946149796 200.05638963715265 L 236.71294709612346 200.0422922278645 L 238.2847103220926 199.78171917089838 L 239.96353274156945 199.58628937817377 L 241.7226495561771 199.43971703363033 L 243.54198716713282 199.32978777522274 L 245.15649037534962 199.24734083141706 L 246.6173677815122 199.1855056235628 L 247.96302583613414 199.1391292176721 L 249.2222693771006 199.10434691325406 L 250.41670203282544 199.07826018494055 L 251.56252652461907 199.05869513870542 L 252.6718948934643 199.04402135402907 L 254.00392117009824 199.0330160155218 L 255.50294087757368 199.02476201164137 L 257.1272056581803 199.01857150873104 L 258.84540424363524 198.76392863154828 L 260.63405318272646 198.5729464736612 L 262.4755398870449 198.4297098552459 L 264.1066549152837 198.32228239143444 L 265.57999118646273 198.24171179357583 L 266.934993389847 198.18128384518187 L 267.95124504238527 198.1359628838864 L 268.9634337817889 198.10197216291482 L 269.9725753363417 198.07647912218613 L 270.97943150225626 198.0573593416396 L 272.23457362669217 198.0430195062297 L 273.42593022001915 198.03226462967228 L 274.81944766501437 198.02419847225423 L 276.11458574876076 198.01814885419066 L 277.58593931157054 198.01361164064298 L 278.9394544836779 198.01020873048225 L 280.20459086275844 197.7576565478617 L 281.40344314706886 197.5682424108963 L 282.55258236030164 197.4261818081722 L 283.41443677022625 197.31963635612914 L 284.31082757766967 197.23972726709684 L 285.23312068325225 197.17979545032262 L 286.4248405124392 197.13484658774195 L 287.56863038432937 196.85113494080645 L 288.926472788247 196.63835120560483 L 290.1948545911853 196.47876340420362 L 291.64614094338896 196.3590725531527 L 292.98460570754173 196.26930441486454 L 294.4884542806563 196.2019783111484 L 295.86634071049224 196.1514837333613 L 297.14975553286916 196.11361280002097 L 298.36231664965186 196.08520960001573 L 299.5217374872389 196.06390720001178 L 300.6413031154292 196.04793040000885 L 301.73097733657187 196.03594780000662 L 302.7982330024289 196.02696085000497 L 303.8486747518217 196.0202206375037 L 305.13650606386625 196.01516547812778 L 306.35237954789966 196.01137410859585 L 307.7642846609248 196.00853058144688 L 309.0732134956936 196.00639793608516 L 310.3049101217702 196.00479845206388 L 311.47868259132764 196.00359883904792 L 312.6090119434957 196.00269912928593 L 313.4567589576218 196.00202434696445 L 314.34256921821634 196.00151826022335 L 315.25692691366226 196.00113869516753 L 316.1926951852467 196.00085402137563 L 317.144521388935 196.00064051603172 L 318.1083910417012 196.0004803870238 L 319.0812932812759 196.00036029026785 L 320.3109699609569 196.0002702177009 L 321.4832274707177 196.00020266327567 L 322.61242060303823 196.00015199745675 L 323.4593154522787 196.00011399809256 L 324.34448658920905 196.00008549856943 L 325.0083649419068 196.00006412392707 L 325.7562737064301 196.0000480929453 L 326.5672052798226 196.00003606970898 L 327.4254039598669 196.00002705228172 L 328.0690529699002 196.0000202892113 L 328.80178972742516 196.00001521690848 L 329.6013422955689 196.00001141268137 L 330.45100672167666 196.00000855951103 L 331.3382550412575 196.00000641963328 L 332.25369128094314 196.00000481472495 L 333.19026846070733 196.00000361104372 L 334.1427013455305 196.0000027082828 L 334.8570260091479 196.0000020312121 L 335.64276950686093 196.00000152340908 L 336.4820771301457 196.0000011425568 L 337.3615578476093 196.0000008569176 L 338.27116838570697 196.0000006426882 L 338.95337628928024 196.00000048201616 L 339.7150322169602 196.00000036151212 L 340.53627416272013 196.0000002711341 L 341.4022056220401 196.00000020335057 L 342.0516542165301 196.00000015251294 L 342.7887406623976 196.2500001143847 L 343.59155549679815 196.43750008578854 L 344.1936666225986 196.5781250643414 L 344.89524996694894 196.68359379825606 L 345.6714374752117 196.76269534869203 L 346.5035781064088 196.82202151151904 L 347.37768357980656 196.86651613363927 L 348.2832626848549 196.89988710022945 L 349.21244701364117 196.9249153251721 L 349.9093352602309 196.94368649387906 L 350.68200144517317 196.95776487040928 L 351.51150108387986 196.96832365280696 L 352.1336258129099 196.97624273960523 L 352.6002193596824 196.9821820547039 L 353.2001645197618 197.23663654102793 L 353.6501233898214 197.42747740577096 L 354.23759254236603 197.5706080543282 L 354.67819440677454 197.67795604074615 L 355.2586458050809 197.75846703055961 L 355.94398435381066 197.81885027291972 L 356.457988265358 197.8641377046898 L 356.8434911990185 197.89810327851734 L 357.3826183992639 197.92357745888802 L 357.7869637994479 197.942683094166 L 358.3402228495859 197.9570123206245 L 358.75516713718946 197.96775924046838 L 359.3163753528921 197.9758194303513 L 359.7372815146691 197.98186457276347 L 360.30296113600184 197.9863984295726 L 360.7272208520014 197.98979882217947 L 361.045415639001 197.9923491166346 L 361.53406172925077 197.99426183747596 L 361.90054629693805 197.99569637810697 L 362.42540972270353 197.99677228358024 L 362.81905729202765 197.9975792126852 L 363.11429296902077 197.9981844095139 L 363.33571972676555 197.99863830713542 L 363.50178979507416 197.99897873035155 L 363.8763423463056 197.99923404776365 L 364.1572567597292 197.99942553582275 L 364.3679425697969 197.99956915186706 L 364.7759569273477 197.9996768639003 L 365.0819676955108 197.99975764792524 L 365.5614757716331 197.99981823594393 L 365.9211068287249 197.99986367695794 L 366.4408301215436 197.99989775771846 L 366.83062259115775 197.99992331828884 L 367.3729669433683 197.9999424887166 L 367.7797252075262 197.99995686653745 L 368.0847939056447 197.99996764990308 L 368.5635954292335 197.99997573742732 L 368.92269657192514 197.99998180307048 L 369.19202242894386 197.99998635230287 L 369.3940168217079 197.99998976422717 L 369.7955126162809 197.99999232317037 L 370.09663446221066 197.9999942423778 L 370.322475846658 197.99999568178333 L 370.74185688499347 197.9999967613375 L 371.0563926637451 197.99999757100312 L 371.5422944978088 197.99999817825233 L 371.9067208733566 197.99999863368924 L 372.1800406550175 197.99999897526692 L 372.38503049126314 197.9999992314502 L 372.5387728684474 197.99999942358767 L 372.90407965133556 197.99999956769074 L 373.1780597385017 197.99999967576804 L 373.38354480387625 197.999999756826 L 373.5376586029072 197.9999998176195 L 373.6532439521804 197.99999986321464 L 373.9899329641353 197.999999897411 L 374.24244972310146 197.99999992305823 L 374.4318372923261 197.99999994229367 L 374.57387796924456 197.99999995672025 L 374.6804084769334 197.9999999675402 L 374.7603063577001 197.99999997565516 L 375.07022976827506 197.99999998174138 L 375.3026723262063 197.99999998630602 L 375.4770042446547 197.99999998972953 L 375.857753183491 197.99999999229715 L 376.14331488761826 197.99999999422286 L 376.6074861657137 197.99999999566714 L 376.95561462428526 197.99999999675035 L 377.21671096821393 197.99999999756275 L 377.41253322616046 197.99999999817206 L 377.5593999196203 197.99999999862905 L 377.66954993971524 197.9999999989718 L 377.75216245478646 197.99999999922883 L 377.81412184108984 197.99999999942162 L 377.86059138081737 197.99999999956623 L 378.145443535613 197.74999999967469 L 378.35908265170974 197.56249999975603 L 378.5193119887823 197.42187499981702 L 378.63948399158676 197.31640624986278 L 378.97961299369007 197.23730468739708 L 379.23470974526754 197.1779785155478 L 379.42603230895065 197.13348388666085 L 379.569524231713 197.10011291499563 L 379.67714317378477 197.07508468624673 L 379.7578573803386 197.05631351468503 L 379.81839303525396 197.04223513601377 L 379.8637947764405 197.03167635201032 L 379.8978460823304 197.02375726400774 L 379.92338456174775 197.0178179480058 L 379.9425384213108 197.01336346100436 L 380.2069038159831 197.01002259575327 L 380.40517786198734 197.00751694681495 L 380.5538833964905 197.00563771011122 L 380.66541254736785 197.00422828258343 L 380.7490594105259 197.00317121193757 L 380.8117945578944 197.00237840895318 L 380.8588459184208 197.00178380671488 L 380.8941344388156 197.00133785503616 L 381.1706008291117 197.00100339127712 L 381.3779506218338 197.00075254345785 L 381.53346296637534 197.0005644075934 L 381.6500972247815 197.00042330569505 L 381.7375729185861 197.0003174792713 L 381.8031796889396 197.00023810945348 L 381.85238476670474 197.00017858209011 L 381.88928857502856 197.00013393656758 L 381.9169664312714 197.00010045242567 L 381.93772482345355 197.00007533931927 L 381.95329361759013 197.00005650448946 L 381.9649702131926 197.00004237836708 L 381.97372765989445 197.0000317837753 L 381.98029574492085 197.0000238378315 L 381.98522180869065 197.00001787837363 L 381.98891635651796 197.0000134087802 L 381.99168726738844 197.00001005658515 L 381.99376545054133 197.00000754243888 L 381.995324087906 196.75000565682916" fill="transparent" stroke="#000000" stroke-width="8" stroke-linejoin="round" stroke-linecap="round" style="pointer-events: none;"/><circle id="circle114ab65f-9033-46f6-8445-d7e4b5e52d36" cx="423" cy="228" r="4" fill="#ffffff" style="pointer-events: none;"/><path id="114ab65f-9033-46f6-8445-d7e4b5e52d36" d="M 423 228 L 422.75 228 L 422.3125 228 L 421.484375 228 L 420.61328125 228.25 L 419.7099609375 228.4375 L 418.782470703125 228.828125 L 417.83685302734375 229.12109375 L 416.8776397705078 229.3408203125 L 415.90822982788086 229.755615234375 L 415.18117237091064 230.06671142578125 L 414.385879278183 230.30003356933594 L 413.53940945863724 230.47502517700195 L 412.6545570939779 230.60626888275146 L 411.74091782048345 230.7047016620636 L 410.8056883653626 230.7785262465477 L 409.85426627402194 230.83389468491077 L 408.89069970551645 230.87542101368308 L 407.91802477913734 230.9065657602623 L 406.938518584353 230.92992432019673 L 405.95388893826475 230.94744324014755 L 405.21541670369857 230.96058243011066 L 404.4115625277739 230.720436822583 L 403.55867189583046 230.54032761693725 L 402.91900392187284 230.40524571270294 L 402.1892529414046 230.0539342845272 L 401.64193970605345 229.7904507133954 L 400.98145477954006 229.59283803504655 L 400.2360910846551 229.19462852628493 L 399.6770683134913 228.89597139471368 L 399.00780123511845 228.67197854603526 L 398.50585092633884 228.50398390952645 L 398.12938819475414 228.12798793214483 L 397.84704114606564 227.84599094910863 L 397.6352808595492 227.63449321183145 L 397.47646064466187 227.4758699088736 L 397.3573454834964 227.3569024316552 L 397.2680091126223 227.2676768237414 L 396.95100683446674 227.20075761780606 L 396.7132551258501 226.90056821335455 L 396.53494134438756 226.67542616001592 L 396.40120600829067 226.50656962001193 L 396.050904506218 226.12992721500893 L 395.78817837966346 225.8474454112567 L 395.5911337847476 225.63558405844253 L 395.4433503385607 225.4766880438319 L 395.3325127539205 225.35751603287392 L 395.2493845654404 225.26813702465543 L 395.1870384240803 224.95110276849158 L 394.8902788180602 224.71332707636867 L 394.66770911354513 224.53499530727652 L 394.5007818351588 224.4012464804574 L 394.37558637636914 224.05093486034303 L 394.2816897822769 223.7882011452573 L 394.2112673367077 223.59115085894297 L 393.90845050253074 223.44336314420724 L 393.68133787689806 223.33252235815542 L 393.51100340767357 222.99939176861656 L 393.3832525557552 222.74954382646243 L 393.28743941681637 222.56215786984683 L 393.2155795626123 222.17161840238512 L 393.1616846719592 221.87871380178885 L 393.12126350396943 221.65903535134163 L 392.8409476279771 221.24427651350624 L 392.6307107209828 220.93320738512966 L 392.4730330407371 220.69990553884725 L 392.3547747805528 220.27492915413544 L 392.2660810854146 219.95619686560158 L 392.199560814061 219.7171476492012 L 392.14967061054574 219.53786073690088 L 392.1122529579093 219.40339555267565 L 392.08418971843196 219.05254666450674 L 392.063142288824 218.78940999838005 L 392.04735671661797 218.59205749878504 L 392.0355175374635 218.44404312408878 L 392.0266381530976 218.33303234306658 L 392.01997861482323 218.24977425729992 L 392.0149839611174 218.18733069297494 L 392.01123797083807 218.1404980197312 L 392.00842847812856 218.1053735147984 L 391.75632135859644 217.8290301360988 L 391.56724101894736 217.6217726020741 L 391.42543076421055 217.46632945155557 L 391.31907307315794 217.09974708866667 L 391.2393048048684 216.82481031650002 L 391.1794786036513 216.61860773737502 L 391.1346089527385 216.46395580303127 L 391.1009567145539 216.34796685227346 L 391.07571753591543 216.2609751392051 L 391.0567881519366 216.19573135440382 L 391.0425911139524 215.89679851580286 L 390.78194333546435 215.67259888685214 L 390.58645750159826 215.5044491651391 L 390.4398431261987 215.12833687385432 L 390.32988234464904 214.84625265539074 L 390.2474117584868 214.63468949154304 L 390.1855588188651 214.2260171186573 L 389.88916911414884 213.91951283899297 L 389.6668768356116 213.68963462924472 L 389.5001576267087 213.51722597193356 L 389.37511822003154 213.13791947895015 L 389.28133866502367 212.85343960921261 L 389.21100399876775 212.64007970690946 L 389.1582529990758 212.4800597801821 L 389.11868974930684 212.3600448351366 L 389.0890173119801 212.27003362635244 L 389.0667629839851 212.20252521976434 L 389.05007223798884 212.15189391482326 L 389.03755417849163 211.86392043611744 L 388.77816563386875 211.64794032708807 L 388.58362422540154 211.48595524531606 L 388.43771816905115 211.36446643398705 L 388.3282886267884 211.2733498254903 L 388.24621647009127 211.20501236911772 L 388.18466235256847 211.1537592768383 L 388.13849676442635 210.86531945762871 L 388.1038725733198 210.64898959322153 L 388.07790442998987 210.48674219491613 L 388.05842832249243 210.3650566461871 L 388.0438212418693 210.27379248464032 L 388.03286593140194 210.20534436348024 L 388.0246494485515 210.15400827261018 L 387.76848708641364 210.11550620445763 L 387.57636531481023 210.0866296533432 L 387.4322739861077 210.06497224000742 L 387.3242054895808 210.04872918000558 L 387.24315411718555 210.03654688500419 L 387.1823655878892 210.02741016375313 L 387.13677419091687 210.02055762281486 L 387.10258064318765 210.01541821711115 L 387.07693548239075 210.01156366283337 L 387.05770161179305 210.00867274712502 L 387.04327620884476 210.00650456034376 L 387.03245715663354 210.00487842025782 L 387.0243428674752 210.00365881519338 L 387.01825715060636 210.00274411139503 L 387.01369286295477 210.00205808354627 L 387.0102696472161 210.00154356265972 L 387.00770223541207 210.0011576719948 L 387.00577667655904 210.0008682539961 L 387.0043325074193 210.00065119049708 L 387.00324938056445 209.7504883928728 L 387.0024370354233 209.5628662946546 L 387.0018277765675 209.42214972099094 L 387.0013708324256 209.3166122907432 L 387.0010281243192 209.23745921805738 L 387.0007710932394 209.17809441354302 L 387.00057831992956 209.13357081015727 L 387.0004337399472 209.10017810761795 L 387.00032530496037 209.07513358071347 L 387.0002439787203 209.0563501855351 L 387.0001829840402 209.04226263915132 L 387.0001372380301 209.0316969793635 L 387.00010292852255 209.02377273452262 L 387.0000771963919 209.01782955089197 L 387.0000578972939 209.01337216316898 L 387.0000434229704 209.01002912237675 L 387.0000325672278 209.00752184178256 L 387.00002442542086 209.00564138133691 L 387.00001831906565 209.0042310360027 L 387.0000137392992 209.00317327700202 L 387.0000103044744 209.00237995775151 L 387.0000077283558 209.00178496831364 L 387.00000579626686 209.00133872623525 L 387.00000434720016 209.00100404467645 L 387.00000326040015 209.00075303350735 L 387.0000024453001 209.0005647751305 L 386.75000183397503 209.0004235813479 L 386.56250137548125 209.00031768601093 L 386.42187603161096 209.0002382645082 L 386.3164070237082 209.00017869838115 L 386.23730526778115 209.00013402378585 L 386.17797895083584 209.00010051783937 L 386.13348421312685 209.0000753883795 L 385.85011315984514 208.75005654128464 L 385.6375848698839 208.56254240596348 L 385.4781886524129 208.4219068044726 L 385.35864148930966 208.31643010335443 L 385.2689811169822 208.23732257751584 L 385.2017358377367 208.17799193313687 L 385.15130187830255 208.13349394985266 L 385.1134764087269 208.1001204623895 L 385.0851073065452 208.07509034679214 L 385.0638304799089 208.0563177600941 L 385.04787285993166 208.04223832007057 L 385.03590464494874 208.03167874005294 L 385.0269284837116 208.0237590550397 L 385.0201963627837 208.01781929127978 L 385.01514727208775 208.01336446845983 L 384.7613604540658 208.01002335134487 L 384.57102034054935 208.00751751350865 L 384.42826525541204 208.00563813513148 L 384.32119894155903 208.00422860134861 L 384.2408992061693 208.00317145101147 L 384.180674404627 208.0023785882586 L 384.1355058034702 208.00178394119396 L 384.1016293526027 208.00133795589548 L 384.076222014452 208.00100346692162 L 384.057166510839 208.00075260019122 L 384.04287488312923 208.00056445014343 L 384.03215616234695 208.00042333760757 L 384.02411712176024 208.00031750320568 L 384.01808784132015 208.00023812740426 L 384.0135658809901 208.0001785955532 L 384.0101744107426 207.7501339466649 L 384.00763080805694 207.5626004599987 L 384.0057231060427 207.421950344999 L 384.004292329532 207.31646275874925 L 384.003219247149 207.23734706906194 L 384.00241443536174 207.17801030179646 L 384.0018108265213 207.13350772634735 L 384.001358119891 207.1001307947605 L 384.00101858991826 207.07509809607038 L 384.0007639424387 207.05632357205278 L 384.00057295682905 207.0422426790396 L 384.0004297176218 207.03168200927968 L 384.00032228821635 207.02376150695977 L 384.00024171616224 207.01782113021983 L 384.0001812871217 207.0133658476649 L 384.00013596534126 207.01002438574866 L 384.00010197400593 207.0075182893115 L 384.00007648050445 207.0056387169836 L 383.7500573603783 207.0042290377377 L 383.5625430202837 207.00317177830328 L 383.4219072652128 207.00237883372745 L 383.3164304489096 207.0017841252956 L 383.2373228366822 207.0013380939717 L 383.17799212751163 207.00100357047876 L 383.13349409563375 207.00075267785905 L 383.1001205717253 207.0005645083943 L 383.075090428794 207.00042338129572 L 383.0563178215955 207.0003175359718 L 383.0422383661966 207.00023815197883 L 383.03167877464745 207.00017861398413 L 383.0237590809856 207.00013396048809 L 383.0178193107392 207.00010047036608 L 383.0133644830544 207.00007535277456 L 383.0100233622908 207.00005651458093 L 383.0075175217181 207.0000423859357 L 383.0056381412886 207.00003178945178 L 383.00422860596643 207.00002384208884 L 383.0031714544748 207.00001788156663 L 383.0023785908561 207.00001341117496 L 383.0017839431421 207.00001005838124 L 383.00133795735655 207.00000754378593 L 383.0010034680174 207.00000565783944 L 383.00075260101306 207.00000424337958 L 383.0005644507598 207.00000318253467 L 383.0004233380698 207.000002386901 L 383.00031750355237 207.00000179017576 L 383.00023812766426 207.00000134263183 L 383.2501785957482 207.0000010069739 L 383.43763394681116 207.00000075523042 L 383.57822546010834 207.0000005664228 L 383.68366909508126 207.0000004248171 L 383.7627518213109 207.00000031861282 L 383.8220638659832 207.00000023895961 L 383.8665478994874 207.0000001792197 L 383.89991092461554 207.0000001344148 L 383.92493319346164 207.0000001008111 L 383.94369989509624 207.0000000756083 L 384.2077749213222 207.00000005670623 L 384.40583119099165 207.00000004252968 L 384.55437339324374 207.00000003189726 L 384.66578004493283 207.00000002392295 L 384.7493350336996 207.00000001794223 L 384.8120012752747 207.00000001345666 L 384.85900095645604 207.0000000100925 L 384.89425071734206 207.00000000756938 L 384.9206880380066 207.00000000567704 L 384.94051602850493 207.00000000425777 L 384.95538702137867 207.00000000319332 L 384.96654026603403 207.00000000239498 L 384.97490519952555 207.00000000179625 L 384.9811788996442 207.0000000013472 L 385.23588417473314 207.0000000010104 L 385.42691313104984 207.00000000075778 L 385.5701848482874 207.00000000056832 L 385.67763863621553 207.00000000042624 L 385.75822897716165 207.0000000003197 L 385.8186717328712 207.00000000023977 L 385.8640037996534 207.00000000017982 L 385.89800284974007 207.00000000013486 L 385.92350213730504 207.00000000010115 L 385.94262660297875 207.00000000007586 L 385.9569699522341 207.0000000000569 L 385.9677274641756 207.0000000000427 L 385.9757955981317 207.000000000032 L 385.98184669859876 207.000000000024 L 385.9863850239491 207.000000000018 L 385.98978876796184 207.0000000000135 L 385.9923415759714 207.00000000001012 L 385.9942561819786 207.0000000000076 L 385.99569213648397 207.00000000000568 L 385.996769102363 207.00000000000426 L 385.9975768267722 207.00000000000318 L 385.99818262007915 207.0000000000024 L 385.99863696505935 207.0000000000018 L 385.9989777237945 207.00000000000134 L 385.9992332928459 207.000000000001 L 385.9994249696344 207.00000000000074 L 385.9995687272258 207.00000000000057 L 385.99967654541933 207.00000000000043 L 385.9997574090645 207.0000000000003 L 385.9998180567984 207.00000000000023 L 385.9998635425988 207.00000000000017 L 385.9998976569491 207.0000000000001 L 385.9999232427118 207.00000000000009 L 385.9999424320339 207.00000000000006 L 385.9999568240254 207.00000000000006 L 385.999967618019 207.00000000000006 L 385.99997571351423 206.75000000000006 L 386.2499817851357 206.56250000000006 L 386.4374863388517 206.42187500000006 L 386.5781147541388 206.31640625000006 L 386.9335860656041 206.23730468750006 L 387.20018954920306 206.17797851562506 L 387.4001421619023 206.1334838867188 L 387.5501066214267 206.10011291503912 L 387.66257996607004 206.07508468627935 L 387.7469349745525 206.05631351470953 L 387.8102012309144 206.04223513603216 L 387.8576509231858 206.03167635202414 L 387.8932381923894 206.02375726401812 L 387.91992864429204 206.0178179480136 L 387.93994648321905 206.01336346101021 L 387.9549598624143 206.01002259575768 L 387.9662198968107 206.00751694681827 L 387.974664922608 206.00563771011372 L 387.98099869195596 206.0042282825853 L 387.985749018967 206.003171211939 L 387.98931176422525 206.00237840895426 L 387.99198382316894 206.0017838067157 L 387.9939878673767 206.00133785503678 L 387.9954909005325 206.00100339127758 L 387.99661817539936 206.0007525434582 L 387.9974636315495 206.00056440759363 L 387.9980977236621 206.00042330569522 L 387.9985732927466 206.00031747927142 L 387.9989299695599 206.00023810945356 L 387.99919747716996 206.00017858209017 L 387.9993981078775 206.00013393656764 L 387.99954858090814 206.00010045242573 L 387.9996614356811 206.0000753393193 L 387.99974607676086 206.00005650448946 L 387.99980955757064 206.00004237836708 L 387.999857168178 206.0000317837753 L 387.99989287613346 206.0000238378315 L 387.9999196571001 206.00001787837363 L 387.99993974282506 206.0000134087802 L 387.9999548071188 206.00001005658515 L 387.9999661053391 206.00000754243888 L 387.99997457900434 206.00000565682916 L 387.99998093425324 206.00000424262186 L 387.99998570068993 206.0000031819664 L 387.99998927551746 206.00000238647482 L 387.9999919566381 206.00000178985613 L 387.9999939674786 206.0000013423921 L 387.99999547560896 206.00000100679407 L 387.9999966067067 206.00000075509556 L 387.99999745503004 206.00000056632166 L 387.9999980912725 206.00000042474124 L 387.9999985684544 206.00000031855592 L 387.99999892634077 206.00000023891693 L 387.99999919475556 206.00000017918768 L 387.99999939606664 206.00000013439075 L 387.99999954705 206.00000010079305 L 387.9999996602875 206.00000007559478 L 387.99999974521563 206.00000005669608 L 387.99999980891175 206.00000004252206 L 387.9999998566838 206.00000003189155 L 387.99999989251285 205.75000002391866 L 387.99999991938466 205.562500017939 L 387.7499999395385 205.42187501345424 L 387.56249995465384 205.31640626009067 L 387.42187496599036 205.23730469506802 L 387.31640622449277 205.17797852130101 L 386.9873046683696 205.13348389097575 L 386.74047850127715 205.10011291823182 L 386.55535887595784 205.07508468867385 L 386.4165191569684 205.05631351650538 L 386.31238936772627 205.04223513737904 L 386.23429202579473 205.03167635303427 L 386.17571901934605 205.0237572647757 L 385.8817892645095 205.01781794858178 L 385.66134194838213 205.01336346143634 L 385.4960064612866 205.01002259607725 L 385.37200484596497 205.00751694705792 L 385.2790036344737 205.00563771029346 L 385.2092527258553 205.00422828272008 L 385.1569395443915 205.00317121204006 L 385.11770465829363 205.00237840903003 L 385.0882784937202 205.00178380677252 L 385.06620887029015 205.00133785507938 L 384.7996566527176 205.00100339130955 L 384.5997424895382 205.00075254348218 L 384.44980686715365 205.00056440761165 L 384.3373551503652 205.00042330570875 L 384.2530163627739 205.00031747928156 L 384.18976227208043 205.00023810946118 L 384.14232170406035 205.00017858209588 L 384.10674127804526 205.0001339365719 L 384.08005595853393 205.0001004524289 L 384.06004196890046 205.00007533932168 L 384.0450314766754 205.00005650449125 L 384.03377360750653 205.00004237836845 L 384.02533020562987 205.00003178377634 L 384.0189976542224 205.00002383783226 L 384.0142482406668 205.0000178783742 L 384.0106861805001 205.00001340878066 L 384.00801463537505 205.0000100565855 L 384.0060109765313 205.0000075424391 L 384.00450823239845 205.00000565682933 L 384.00338117429885 205.000004242622 L 384.00253588072417 205.0000031819665 L 384.0019019105431 205.00000238647488 L 384.00142643290735 205.00000178985616 L 384.0010698246805 205.00000134239212 L 384.00080236851034 205.0000010067941 L 384.0006017763827 205.00000075509558 L 384.00045133228707 205.0000005663217 L 384.00033849921533 205.00000042474127 L 384.0002538744115 205.00000031855595 L 384.0001904058086 205.00000023891695 L 384.00014280435647 205.0000001791877 L 384.00010710326734 205.00000013439077 L 384.0000803274505 205.00000010079307 L 384.00006024558786 205.0000000755948 L 383.75004518419087 205.0000000566961 L 383.56253388814315 205.0000000425221 L 383.42190041610735 205.00000003189157 L 383.3164253120805 205.0000000239187 L 383.2373189840604 205.00000001793902 L 383.17798923804526 205.00000001345427 L 382.88349192853394 205.0000000100907 L 382.66261894640047 205.00000000756802 L 382.49696420980035 205.00000000567601 L 382.37272315735026 205.000000004257 L 382.2795423680127 205.00000000319275 L 382.2096567760095 205.00000000239456 L 382.15724258200714 205.0000000017959 L 382.11793193650533 205.00000000134693 L 381.838448952379 205.0000000010102 L 381.62883671428426 205.00000000075764 L 381.4716275357132 205.00000000056824 L 381.3537206517849 205.00000000042618 L 381.2652904888387 205.00000000031963 L 381.198967866629 205.0000000002397 L 381.1492258999717 205.0000000001798 L 381.1119194249788 205.00000000013483 L 381.0839395687341 205.00000000010112 L 381.0629546765506 205.00000000007583 L 381.04721600741294 205.00000000005687 L 381.0354120055597 205.00000000004266 L 381.02655900416977 205.000000000032 L 381.01991925312734 205.000000000024 L 381.01493943984553 205.000000000018 L 381.2612045798842 205.0000000000135 L 381.44590343491313 205.00000000001012 L 381.83442757618485 205.0000000000076 L 382.1258206821386 205.00000000000568 L 382.344365511604 205.00000000000426 L 382.758274133703 205.00000000000318 L 383.06870560027727 205.0000000000024 L 383.30152920020794 205.0000000000018 L 383.726146900156 205.00000000000134 L 384.044610175117 205.000000000001 L 384.28345763133774 205.00000000000074 L 384.4625932235033 205.00000000000057 L 384.84694491762747 205.00000000000043 L 385.1352086882206 205.0000000000003 L 385.3514065161654 205.00000000000023 L 385.5135548871241 205.00000000000017 L 385.6351661653431 205.0000000000001 L 385.97637462400735 205.00000000000009 L 386.2322809680055 205.00000000000006 L 386.42421072600416 205.00000000000006 L 386.5681580445031 205.00000000000006 L 386.67611853337735 205.00000000000006 L 387.007088900033 205.00000000000006 L 387.25531667502474 205.00000000000006 L 387.4414875062686 205.00000000000006 L 387.58111562970146 205.00000000000006 L 387.6858367222761 205.00000000000006 L 387.76437754170706 205.00000000000006 L 388.0732831562803 205.00000000000006 L 388.30496236721024 205.00000000000006 L 388.4787217754077 205.00000000000006 L 388.6090413315558 205.00000000000006 L 388.70678099866683 205.00000000000006 L 389.03008574900014 205.00000000000006 L 389.2725643117501 205.00000000000006 L 389.4544232338126 205.00000000000006 L 389.84081742535943 205.00000000000006 L 390.13061306901955 205.00000000000006 L 390.34795980176466 205.00000000000006 L 390.51096985132347 205.00000000000006 L 390.6332273884926 205.00000000000006 L 390.72492054136944 205.00000000000006 L 390.79369040602705 205.00000000000006 L 390.8452678045203 205.00000000000006 L 390.8839508533902 205.00000000000006 L 390.9129631400427 205.00000000000006 L 390.934722355032 205.00000000000006 L 390.951041766274 205.00000000000006 L 390.96328132470546 205.00000000000006 L 390.9724609935291 205.00000000000006 L 390.9793457451468 205.00000000000006 L 391.2345093088601 205.00000000000006 L 391.42588198164503 205.00000000000006 L 391.5694114862338 205.00000000000006 L 391.67705861467533 205.00000000000006 L 391.7577939610065 205.00000000000006 L 391.8183454707549 205.00000000000006 L 391.8637591030662 205.00000000000006 L 391.89781932729966 205.00000000000006 L 391.92336449547474 205.00000000000006 L 391.94252337160606 205.00000000000006 L 391.95689252870454 205.00000000000006 L 391.96766939652844 205.00000000000006 L 391.9757520473963 205.00000000000006 L 391.98181403554725 205.00000000000006 L 391.9863605266604 205.00000000000006 L 391.9897703949953 205.00000000000006 L 391.99232779624646 205.00000000000006 L 391.99424584718486 205.00000000000006 L 391.99568438538864 205.00000000000006 L 391.9967632890415 205.00000000000006 L 391.9975724667811 205.00000000000006 L 391.9981793500858 205.00000000000006 L 391.99863451256437 205.00000000000006 L 391.99897588442326 205.00000000000006 L 391.99923191331743 205.00000000000006 L 391.99942393498804 204.75000000000006 L 391.99956795124103 204.56250000000006 L 391.9996759634308 204.42187500000006 L 391.9997569725731 204.31640625000006 L 391.9998177294298 204.23730468750006 L 391.99986329707235 204.17797851562506 L 391.99989747280426 204.1334838867188 L 391.9999231046032 203.85011291503912 L 391.99994232845245 203.63758468627935 L 391.9999567463393 203.47818851470953 L 391.9999675597545 203.35864138603216 L 391.99997566981585 203.26898103952414 L 391.9999817523619 203.20173577964312 L 391.99998631427144 203.15130183473235 L 391.9999897357036 203.11347637604928 L 391.9999923017777 203.08510728203697 L 391.9999942263333 203.06383046152774 L 391.99999566975 203.04787284614582 L 391.9999967523125 203.03590463460938 L 391.9999975642344 203.02692847595705 L 391.99999817317575 203.0201963569678 L 391.9999986298818 203.01514726772587 L 391.9999989724114 203.0113604507944 L 391.9999992293085 202.7585203380958 L 392.2499994219814 202.56889025357185 L 392.43749956648605 202.42666769017887 L 392.5781246748645 202.32000076763416 L 392.6835935061484 202.24000057572562 L 392.7626951296113 202.1800004317942 L 392.8220213472085 202.13500032384565 L 392.8665160104064 202.10125024288425 L 392.89988700780475 202.0759376821632 L 392.92491525585353 202.0569532616224 L 392.9436864418901 202.0427149462168 L 392.9577648314176 202.03203620966258 L 392.9683236235632 202.02402715724693 L 392.9762427176724 202.0180203679352 L 392.9821820382543 202.01351527595142 L 392.9866365286907 202.01013645696355 L 392.98997739651804 202.00760234272266 L 392.99248304738853 202.005701757042 L 392.9943622855414 202.0042763177815 L 392.74577171415604 202.00320723833613 L 392.559328785617 202.0024054287521 L 392.41949658921277 202.00180407156407 L 392.0646224419096 202.00135305367306 L 391.79846683143217 202.0010147902548 L 391.59885012357415 202.0007610926911 L 391.1991375926806 202.00057081951832 L 390.89935319451047 202.00042811463874 L 390.67451489588285 202.25032108597907 L 390.50588617191215 202.4377408144843 L 390.3794146289341 202.57830561086323 L 390.28456097170056 202.6837292081474 L 390.2134207287754 202.76279690611057 L 390.16006554658156 202.82209767958292 L 390.1200491599362 202.8665732596872 L 390.09003686995214 202.8999299447654 L 390.0675276524641 202.92494745857405 L 390.05064573934806 202.94371059393055 L 390.03798430451104 202.95778294544792 L 390.02848822838325 202.96833720908595 L 390.02136617128747 202.97625290681447 L 390.01602462846563 202.98218968011085 L 390.0120184713492 202.98664226008313 L 390.00901385351193 202.98998169506234 L 390.00676039013393 202.99248627129674 L 390.00507029260046 202.99436470347257 L 390.00380271945033 202.99577352760443 L 390.00285203958776 202.9968301457033 L 390.00213902969085 202.99762260927747 L 390.00160427226814 202.99821695695812 L 390.0012032042011 202.9986627177186 L 390.0009024031508 202.99899703828893 L 390.0006768023631 202.9992477787167 L 390.0005076017723 202.9994358340375 L 390.0003807013292 202.99957687552813 L 390.0002855259969 202.9996826566461 L 390.0002141444977 202.99976199248457 L 390.0001606083733 202.99982149436343 L 390.00012045627994 202.99986612077257 L 390.00009034220994 202.99989959057942 L 390.0000677566575 202.99992469293457 L 390.0000508174931 202.99994351970093 L 390.00003811311984 202.9999576397757 L 390.00002858483987 202.99996822983178 L 390.0000214386299 202.99997617237383 L 390.0000160789724 202.99998212928037 L 390.00001205922933 202.99998659696027 L 390.000009044422 202.9999899477202 L 390.0000067833165 202.99999246079014 L 390.00000508748735 202.9999943455926 L 390.0000038156155 202.99999575919446 L 390.00000286171166 202.99999681939585 L 390.00000214628375 202.99999761454688 L 390.0000016097128 202.99999821091018" fill="transparent" stroke="#ffffff" stroke-width="8" stroke-linejoin="round" stroke-linecap="round" style="pointer-events: none;"/><circle id="circle810f4ee3-34c5-4eaf-81bc-aa9958c41bd3" cx="229" cy="107" r="4" fill="#000000" style="pointer-events: none;"/><path id="810f4ee3-34c5-4eaf-81bc-aa9958c41bd3" d="M 229 107 L 228.75 107.25 L 228.5625 107.6875 L 228.421875 108.265625 L 228.31640625 108.94921875 L 228.2373046875 109.7119140625 L 228.177978515625 110.533935546875 L 228.13348388671875 111.40045166015625 L 228.10011291503906 112.30033874511719 L 228.0750846862793 113.22525405883789 L 228.05631351470947 114.16894054412842 L 228.0422351360321 115.12670540809631 L 228.03167635202408 116.09502905607224 L 228.02375726401806 117.07127179205418 L 228.01781794801354 118.05345384404063 L 228.01336346101016 119.29009038303047 L 228.01002259575762 120.46756778727286 L 228.0075169468182 121.60067584045464 L 228.00563771011366 122.70050688034098 L 228.00422828258525 123.77538016025574 L 228.00317121193893 124.8315351201918 L 228.0023784089542 125.87365134014385 L 228.00178380671565 126.90523850510789 L 228.00133785503675 127.92892887883092 L 228.00100339127755 128.94669665912318 L 228.25075254345816 129.96002249434238 L 228.43806440759363 130.97001687075678 L 228.57854830569522 131.72751265306758 L 228.68391122927142 132.54563448980068 L 228.76293342195356 133.4092258673505 L 228.82220006646517 134.55691940051287 L 228.8666500498489 135.66768955038464 L 228.89998753738666 136.75076716278846 L 228.92499065304 137.81307537209136 L 228.94374298978 138.85980652906852 L 228.95780724233498 140.1448548968014 L 228.96835543175123 141.10864117260104 L 228.97626657381343 142.0814808794508 L 228.98219993036008 143.0611106595881 L 229.23664994777005 143.79583299469107 L 229.42748746082754 144.5968747460183 L 229.57061559562067 145.44765605951372 L 229.6779616967155 146.33574204463528 L 229.7584712725366 147.25180653347647 L 229.81885345440247 148.43885490010734 L 229.86414009080187 149.5791411750805 L 229.89810506810142 150.93435588131038 L 229.92357880107608 152.2007669109828 L 230.19268410080707 153.6505751832371 L 230.3945130756053 154.9879313874278 L 230.54588480670395 156.24094854057086 L 230.65941360502796 157.43071140542816 L 230.74456020377096 158.57303355407112 L 230.8084201528282 159.67977516555334 L 230.85631511462117 160.759831374165 L 230.8922363359659 161.81987353062374 L 231.16917725197442 162.61490514796782 L 231.37688293898083 163.46117886097585 L 231.53266220423563 164.34588414573187 L 231.64949665317673 165.25941310929892 L 231.73712248988255 166.19455983197417 L 231.80284186741193 167.14591987398063 L 231.85213140055896 168.1094399054855 L 231.88909855041922 169.08207992911412 L 231.9168239128144 170.0615599468356 L 231.9376179346108 170.7961699601267 L 231.95321345095812 171.59712747009502 L 231.96491008821857 172.44784560257125 L 231.97368256616392 173.08588420192842 L 231.98026192462294 173.81441315144633 L 231.9851964434672 174.61080986358473 L 231.9888973326004 175.20810739768854 L 231.99167299945032 175.9060805482664 L 231.99375474958774 176.42956041119982 L 231.9953160621908 177.07217030839985 L 231.9964870466431 177.5541277312999 L 231.99736528498232 178.16559579847493 L 231.99802396373673 178.8741968488562 L 231.99851797280255 179.40564763664216 L 231.9988884796019 180.05423572748163 L 231.99916635970143 180.7906767956112 L 231.99937476977607 181.5930075967084 L 231.99953107733205 182.4447556975313 L 231.99964830799905 183.33356677314848 L 231.9997362309993 184.25017507986135 L 231.99980217324946 185.187631309896 L 231.9998516299371 186.140723482422 L 231.99988872245282 186.8555426118165 L 231.9999165418396 187.39165695886237 L 231.9999374063797 188.0437427191468 L 231.99995305478478 188.53280703936008 L 231.9999647910886 189.14960527952007 L 231.99997359331644 189.61220395964006 L 231.99998019498733 190.20915296973004 L 231.9999851462405 190.65686472729755 L 231.99998885968037 190.99264854547317 L 231.99999164476029 191.24448640910487 L 231.99999373357022 191.43336480682865 L 231.99999530017766 191.8250236051215 L 231.99999647513323 192.11876770384112 L 231.99999735634992 192.33907577788085 L 231.99999801726244 192.75430683341062 L 231.99999851294683 193.06573012505797 L 231.99999888471012 193.54929759379348 L 231.9999991635326 193.91197319534513 L 232.24999937264946 194.43397989650884 L 232.4374995294871 194.82548492238163 L 232.57812464711532 195.11911369178623 L 232.68359348533647 195.33933526883968 L 232.76269511400236 195.50450145162975 L 232.82202133550177 195.87837608872232 L 232.86651600162634 196.15878206654173 L 232.89988700121975 196.36908654990629 L 232.9249152509148 196.5268149124297 L 232.9436864381861 196.64511118432227 L 232.95776482863957 196.7338333882417 L 232.96832362147967 196.80037504118127 L 232.97624271610977 196.85028128088595 L 232.98218203708234 196.88771096066446 L 232.98663652781175 196.91578322049835 L 232.98997739585883 196.93683741537376 L 232.9924830468941 196.95262806153033 L 232.99436228517058 196.96447104614776 L 232.99577171387793 196.97335328461082 L 232.99682878540844 197.23001496345813 L 232.99762158905634 197.42251122259358 L 232.99821619179227 197.5668834169452 L 232.9986621438442 197.6751625627089 L 232.99899660788316 197.75637192203166 L 232.99924745591238 197.81727894152374 L 232.9994355919343 197.61295920614282" fill="transparent" stroke="#000000" stroke-width="8" stroke-linejoin="round" stroke-linecap="round" style="pointer-events: none;"/><circle id="circle75839a6e-1633-40e7-b79a-601b43c3a7e2" cx="150" cy="107" r="4" fill="#000000" style="pointer-events: none;"/><path id="75839a6e-1633-40e7-b79a-601b43c3a7e2" d="M 150 107 L 150 107.25 L 150 107.4375 L 150 107.828125 L 149.75 108.37109375 L 149.5625 109.0283203125 L 149.421875 109.771240234375 L 149.31640625 110.57843017578125 L 149.2373046875 111.43382263183594 L 149.177978515625 112.32536697387695 L 149.13348388671875 113.24402523040771 L 149.10011291503906 114.18301892280579 L 149.0750846862793 115.38726419210434 L 149.05631351470947 116.54044814407825 L 149.0422351360321 117.90533610805869 L 149.03167635202408 119.42900208104402 L 149.02375726401806 120.82175156078301 L 149.01781794801354 122.36631367058726 L 149.01336346101016 124.02473525294045 L 149.01002259575762 125.76855143970533 L 149.0075169468182 127.326413579779 L 149.00563771011366 128.99481018483425 L 149.00422828258525 130.4961076386257 L 149.00317121193893 131.87208072896925 L 149.0023784089542 133.40406054672695 L 149.00178380671565 135.05304541004523 L 149.00133785503675 136.53978405753392 L 149.00100339127755 138.15483804315045 L 149.00075254345816 139.86612853236284 L 149.00056440759363 141.64959639927213 L 149.00042330569522 143.2371972994541 L 149.00031747927142 144.67789797459056 L 149.00023810945356 146.25842348094292 L 149.00017858209017 147.69381761070719 L 149.00013393656764 149.0203632080304 L 149.00010045242573 150.2652724060228 L 149.0000753393193 151.4489543045171 L 149.00005650448946 152.58671572838782 L 149.00004237836708 153.69003679629085 L 149.0000317837753 154.76752759721813 L 149.0000238378315 156.07564569791361 L 149.00001787837363 157.3067342734352 L 149.0000134087802 158.7300507050764 L 149.00001005658515 160.0475380288073 L 149.00000754243888 161.28565352160547 L 149.00000565682916 162.4642401412041 L 149.00000424262186 163.34818010590308 L 149.0000031819664 164.2611350794273 L 149.00000238647482 165.1958513095705 L 149.00000178985613 166.14688848217787 L 149.0000013423921 167.1101663616334 L 149.00000100679407 168.08262477122503 L 149.00000075509556 169.06196857841877 L 149.00000056632166 170.04647643381406 L 149.00000042474124 171.03485732536055 L 149.00000031855592 172.0261429940204 L 149.00000023891693 173.01960724551532 L 149.00000017918768 174.0147054341365 L 149.00000013439075 175.01102907560238 L 149.00000010079305 176.00827180670177 L 149.25000007559478 176.75620385502634 L 149.43750005669608 177.56715289126976 L 149.57812504252206 178.42536466845232 L 149.68359378189155 179.56902350133925 L 149.76269533641866 180.67676762600445 L 149.822021502314 182.00757571950334 L 149.8665161267355 183.2556817896275 L 150.1498870950516 184.69176134222062 L 150.36241532128872 186.01882100666546 L 150.52181149096654 187.2641157549991 L 150.6413586182249 188.44808681624932 L 150.73101896366867 189.586065112187 L 150.7982642227515 190.43954883414023 L 150.84869816706362 191.32966162560518 L 150.8865236252977 191.99724621920387 L 150.91489271897328 192.74793466440292 L 151.18616953922995 193.3109509983022 L 151.38962715442247 193.98321324872666 L 151.54222036581686 194.487409936545 L 151.65666527436264 195.11555745240875 L 151.74249895577196 195.58666808930656 L 151.806874216829 196.1900010669799 L 151.85515566262174 196.64250080023493 L 151.8913667469663 197.23187560017618 L 151.91852506022474 197.92390670013214 L 151.93889379516855 198.4429300250991 L 151.95417034637643 198.83219751882433 L 151.9656277597823 199.37414813911823 L 151.97422081983672 199.78061110433867 L 151.98066561487752 200.085458328254 L 151.98549921115813 200.5640937461905 L 151.98912440836858 200.92307030964287 L 151.99184330627645 201.44230273223215 L 151.99388247970734 201.8317270491741 L 151.99541185978052 202.12379528688058 L 151.9965588948354 202.34284646516045 L 151.99741917112655 202.50713484887035 L 151.9980643783449 202.63035113665276 L 151.99854828375868 202.72276335248958 L 151.998911212819 202.7920725143672 L 151.99918340961426 202.8440543857754 L 151.9993875572107 202.88304078933155 L 151.99954066790804 202.66228059199867 L 152.24965550093103 201.996710443999 L 152.43724162569828 200.99753283299924" fill="transparent" stroke="#000000" stroke-width="8" stroke-linejoin="round" stroke-linecap="round" style="pointer-events: none;"/><circle id="circle5c8ed372-d8f2-4e55-96c6-908db7d3445b" cx="314" cy="103" r="4" fill="#000000" style="pointer-events: none;"/><path id="5c8ed372-d8f2-4e55-96c6-908db7d3445b" d="M 314 103 L 313.75 103.25 L 313.5625 103.6875 L 313.421875 104.015625 L 313.31640625 104.51171875 L 313.2373046875 105.1337890625 L 313.177978515625 105.850341796875 L 313.13348388671875 106.63775634765625 L 313.10011291503906 107.47831726074219 L 312.8250846862793 108.35873794555664 L 312.6188135147095 109.26905345916748 L 312.4641101360321 110.45179009437561 L 312.3480826020241 111.58884257078171 L 312.26106195151806 112.94163192808628 L 312.19579646363854 114.20622394606471 L 312.1468473477289 115.40466795954853 L 312.1101355107967 116.8035009696614 L 312.0826016330975 118.10262572724605 L 312.06195122482313 119.57696929543454 L 312.04646341861735 121.1827269715759 L 312.034847563963 122.88704522868193 L 312.02613567297226 124.66528392151145 L 312.0196017547292 126.49896294113358 L 312.0147013160469 128.37422220585017 L 312.01102598703517 130.28066665438763 L 312.00826949027635 131.9604999907907 L 312.0062021177073 133.72037499309303 L 312.00465158828047 135.29028124481977 L 312.00348869121035 136.96771093361482 L 312.00261651840776 138.4757832002111 L 312.00196238880585 139.85683740015833 L 312.0014717916044 141.14262805011873 L 312.2511038437033 142.35697103758906 L 312.43832788277746 143.51772827819178 L 312.5787459120831 144.63829620864385 L 312.6840594340623 145.7287221564829 L 312.7630445755467 146.79654161736215 L 312.82228343166 147.8474062130216 L 312.866712573745 149.1355546597662 L 312.9000344303088 150.35166599482466 L 312.9250258227316 151.5137494961185 L 312.9437693670487 152.63531212208886 L 312.9578270252865 153.72648409156665 L 313.2183702689649 154.544863068675 L 313.4137777017237 155.40864730150625 L 313.5603332762928 156.3064854761297 L 313.6702499572196 156.97986410709728 L 313.7526874679147 157.73489808032298 L 313.81451560093603 158.55117356024223 L 313.86088670070205 159.41338017018168 L 313.89566502552657 160.06003512763627 L 313.9217487691449 160.7950263457272 L 313.9413115768587 161.5962697592954 L 313.95598368264405 162.19720231947156 L 313.96698776198303 162.89790173960367 L 313.97524082148726 163.67342630470276 L 313.98143061611546 164.50506972852708 L 313.9860729620866 165.3788022963953 L 313.98955472156496 166.28410172229647 L 313.99216604117373 167.21307629172236 L 313.9941245308803 168.15980721879177 L 313.9955933981602 169.11985541409382 L 313.99669504862015 169.83989156057038 L 313.99752128646514 170.6299186704278 L 313.99814096484886 171.22243900282086 L 313.9986057236366 171.66682925211563 L 313.9989542927275 172.25012193908674 L 313.99921571954565 172.68759145431505 L 313.99941178965923 173.2656935907363 L 313.9995588422444 173.94927019305223 L 313.99966913168333 174.46195264478916 L 313.9997518487625 175.0964644835919 L 313.99981388657187 175.5723483626939 L 313.9998604149289 176.17926127202043 L 313.99989531119667 176.63444595401532 L 313.9999214833975 177.2258344655115 L 313.99994111254813 177.91937584913362 L 313.9999558344111 178.6895318868502 L 313.9999668758083 179.26714891513765 L 313.99997515685624 179.95036168635323 L 313.9999813676422 180.7127712647649 L 313.99998602573163 181.53457844857368 L 314.2499895192987 182.40093383643026 L 314.43749213947405 183.3007003773227 L 314.57811910460555 184.225525282992 L 314.68358932845416 184.919143962244 L 314.7626919963406 185.689357971683 L 314.82201899725544 186.26701847876225 L 314.8665142479416 186.7002638590717 L 314.8998856859562 187.27519789430377 L 314.92491426446713 187.70639842072782 L 314.94368569835035 188.02979881554586 L 314.9577642737628 188.5223491116594 L 314.9683232053221 188.89176183374454 L 315.2262424039916 189.1688213753084 L 315.4196818029937 189.6266160314813 L 315.5647613522453 189.96996202361098 L 315.67357101418395 190.22747151770824 L 315.755178260638 190.6706036382812 L 315.8163836954785 191.0029527287109 L 315.86228777160886 191.2522145465332 L 315.89671582870665 191.6891609098999 L 315.92253687153 192.01687068242492 L 315.9419026536475 192.26265301181868 L 315.9564269902356 192.44698975886402 L 315.9673202426767 192.58524231914802 L 315.97549018200755 192.688931739361 L 315.9816176365057 192.76669880452076 L 315.98621322737927 192.82502410339058 L 315.98965992053445 192.86876807754294 L 315.99224494040084 193.15157605815722 L 315.99418370530066 193.36368204361793 L 315.9956377789755 193.52276153271345 L 315.99672833423165 193.64207114953507 L 315.99754625067374 193.73155336215132 L 315.99815968800533 193.7986650216135 L 315.998619766004 193.84899876621012 L 315.998964824503 193.8867490746576 L 315.99922361837724 193.9150618059932 L 315.9994177137829 193.93629635449489 L 315.9995632853372 193.95222226587117 L 315.9996724640029 193.9641666994034 L 315.99975434800217 193.97312502455253 L 315.9998157610016 193.9798437684144 L 315.9998618207512 193.9848828263108" fill="transparent" stroke="#000000" stroke-width="8" stroke-linejoin="round" stroke-linecap="round" style="pointer-events: none;"/><circle id="circle3158aa19-8945-4628-a68a-1f680b34a692" cx="331" cy="122" r="4" fill="#ff8000" style="pointer-events: none;"/><path id="3158aa19-8945-4628-a68a-1f680b34a692" d="M 331 122 L 331 122.25 L 330.75 122.6875 L 330.5625 123.515625 L 330.421875 124.88671875 L 330.31640625 126.6650390625 L 329.9873046875 128.748779296875 L 329.740478515625 131.31158447265625 L 329.55535888671875 133.9836883544922 L 329.41651916503906 136.73776626586914 L 329.3123893737793 139.55332469940186 L 329.4842920303345 142.4149935245514 L 329.61321902275085 145.31124514341354 L 329.70991426706314 147.98343385756016 L 329.78243570029736 150.23757539317012 L 330.086826775223 152.1781815448776 L 330.31512008141726 153.6336361586582 L 330.48634006106295 154.97522711899364 L 330.6147550457972 155.98142033924523 L 330.7110662843479 156.73606525443392 L 330.78329971326093 157.30204894082544 L 330.8374747849457 157.72653670561908 L 330.8781060887093 158.0449025292143 L 330.90857956653196 158.28367689691072 L 330.931434674899 158.46275767268304 L 330.9485760061742 158.3470682545123 L 330.96143200463064 158.2603011908842 L 330.97107400347295 157.69522589316315 L 331.2283055026047 157.02141941987236 L 331.42122912695356 156.01606456490427 L 331.56592184521514 154.7620484236782 L 331.92444138391136 153.32153631775867 L 332.1933310379335 151.741152238319 L 332.3949982784501 150.05586417873923 L 332.79624870883754 148.5418981340544 L 333.09718653162815 146.9064236005408 L 333.5728898987211 145.42981770040558 L 334.1796674240408 144.07236327530418 L 334.6347505680306 143.05427245647815 L 335.22606292602296 142.2907043423586 L 335.66954719451724 141.46802825676895 L 336.2521603958879 140.8510211925767 L 336.6891202969159 140.38826589443252 L 337.26684022268694 140.0411994208244 L 337.70013016701523 139.7808995656183 L 338.2750976252614 139.58567467421375 L 338.95632321894607 139.4392560056603 L 339.4672424142095 139.3294420042452 L 340.10043181065714 139.2470815031839 L 340.5753238579929 139.18531112738793 L 341.1814928934947 139.38898334554096 L 341.63611967012105 139.54173750915572 L 342.2270897525908 139.9063031318668 L 342.6703173144431 140.4297273489001 L 343.0027379858323 141.07229551167507 L 343.25205348937425 141.8042216337563 L 343.6890401170307 142.60316622531724 L 344.016780087773 143.45237466898794 L 344.26258506582974 144.33928100174097 L 344.44693879937233 145.25446075130571 L 344.5852040995293 146.1908455634793 L 344.688903074647 147.14313417260945 L 344.76667730598524 148.10735062945707 L 344.82500797948893 149.0805129720928 L 344.6187559846167 150.3103847290696 L 344.46406698846255 151.4827885468022 L 344.0980502413469 152.61209141010164 L 343.5735376810102 153.95906855757624 L 342.9301532607576 155.21930141818217 L 342.1976149455682 156.16447606363664 L 341.39821120917617 157.1233570477275 L 340.5486584068821 158.09251778579562 L 339.41149380516157 158.81938833934672 L 338.30862035387116 159.36454125451004 L 337.23146526540336 159.77340594088253 L 336.1735989490525 160.0800544556619 L 335.1301992117894 160.31004084174643 L 334.097649408842 160.48253063130983 L 333.0732370566315 160.36189797348237 L 332.3049277924736 160.27142348011176 L 331.72869584435523 160.20356761008384 L 331.29652188326645 159.90267570756288 L 330.97239141244984 159.67700678067217 L 330.9792935593374 159.25775508550413" fill="transparent" stroke="#ff8000" stroke-width="8" stroke-linejoin="round" stroke-linecap="round" style="pointer-events: none;"/><circle id="circlee6b699f4-a52e-4eb9-a673-6ac7277aef23" cx="355" cy="163" r="4" fill="#ff8000" style="pointer-events: none;"/><path id="e6b699f4-a52e-4eb9-a673-6ac7277aef23" d="M 355 163 L 354.5 162.75 L 353.875 162.8125 L 353.40625 162.859375 L 352.8046875 162.89453125 L 352.353515625 163.1708984375 L 351.76513671875 163.378173828125 L 351.3238525390625 163.78363037109375 L 350.7428894042969 164.0877227783203 L 350.30716705322266 164.56579208374023 L 349.980375289917 164.92434406280518 L 349.73528146743774 165.44325804710388 L 349.5514611005783 166.0824435353279 L 349.41359582543373 166.56183265149593 L 349.3101968690753 167.17137448862195 L 349.2326476518065 167.62853086646646 L 349.17448573885486 168.22139814984985 L 349.13086430414114 168.66604861238739 L 349.09814822810586 169.24953645929054 L 349.0736111710794 169.6871523444679 L 349.05520837830954 170.26536425835093 L 349.04140628373216 170.6990231937632 L 349.0310547127991 171.2742673953224 L 349.0232910345993 171.7057005464918 L 349.01746827594945 172.02927540986886 L 349.0131012069621 172.52195655740164 L 349.0098259052216 172.89146741805123 L 349.2573694289162 173.41860056353843 L 349.69302707168714 173.81395042265382 L 350.01977030376537 174.11046281699038 L 350.514827727824 174.5828471127428 L 350.886120795868 174.9371353345571 L 351.414590596901 175.20285150091783 L 351.81094294767576 175.40213862568837 L 352.3582072107568 175.55160396926627 L 352.7686554080676 175.6637029769497 L 353.3264915560507 175.74777723271228 L 353.994868667038 175.81083292453422 L 354.49615150027853 175.85812469340067 L 355.1221136252089 175.8935935200505 L 355.5915852189067 175.9201951400379 L 356.19368891418003 175.94014635502842 L 356.645266685635 175.9551097662713 L 357.23395001422625 175.71633232470347 L 357.6754625106697 175.5372492435276 L 358.2565968830023 175.4029369326457 L 358.69244766225177 175.05220269948427 L 359.01933574668885 174.7891520246132 L 359.51450181001667 174.5918640184599 L 360.13587635751253 174.19389801384492 L 360.60190726813437 173.8954235103837 L 360.9514304511008 173.42156763278777 L 361.4635728383256 173.06617572459083 L 361.84767962874423 172.54963179344313 L 362.1357597215582 172.16222384508234 L 362.3518197911686 171.62166788381177 L 362.5138648433765 171.2162509128588 L 362.6353986325324 170.9121881846441 L 362.7265489743993 170.43414113848308 L 362.79491173079947 170.07560585386233 L 362.8461837980996 169.80670439039676 L 362.8846378485747 169.35502829279756 L 362.91347838643105 169.01627121959817 L 362.9351087898233 168.76220341469863 L 362.95133159236747 168.32165256102397 L 362.9634986942756 167.74123942076798 L 362.9726240207067 167.30592956557598 L 362.97946801553 166.97944717418198 L 362.9846010116475 166.48458538063647 L 362.9884507587356 166.11343903547737 L 362.9913380690517 165.83507927660804 L 362.99350355178876 165.62630945745605 L 362.9951276638416 165.46973209309203 L 362.99634574788115 165.35229906981903 L 362.99725931091086 165.01422430236425 L 362.9979444831831 164.7606682267732 L 362.99845836238734 164.5705011700799 L 362.9988437717905 164.42787587755993 L 362.7491328288429 164.32090690816995 L 362.5618496216322 164.24068018112746 L 362.42138721622416 164.1805101358456 L 362.31604041216815 164.1353826018842 L 362.2370303091261 164.10153695141315 L 362.1777727318446 164.07615271355985 L 361.88332954888347 163.8071145351699 L 361.6624971616626 163.60533590137743 L 361.496872871247 163.45400192603307 L 361.37265465343523 163.34050144452482 L 361.0294909900764 163.25537608339363 L 360.7721182425573 163.1915320625452 L 360.579088681918 163.1436490469089 L 360.1843165114385 162.8577367851817 L 359.8882373835789 162.64330258888626 L 359.6661780376842 162.4824769416647 L 359.49963352826313 162.36185770624851 L 359.12472514619736 162.27139327968638 L 358.84354385964804 162.20354495976477 L 358.63265789473604 162.1526587198236 L 358.47449342105205 162.11449403986768 L 358.355870065789 162.08587052990077 L 358.26690254934175 162.06440289742557 L 358.2001769120063 162.04830217306917 L 357.90013268400475 162.0362266298019 L 357.67509951300354 162.02716997235143 L 357.5063246347527 162.02037747926357 L 357.3797434760645 162.0152831094477 L 357.0348076070484 162.01146233208578 L 356.7761057052863 162.00859674906434 L 356.5820792789647 162.00644756179827 L 356.18655945922353 162.0048356713487 L 355.8899195944176 162.00362675351153" fill="transparent" stroke="#ff8000" stroke-width="8" stroke-linejoin="round" stroke-linecap="round" style="pointer-events: none;"/><circle id="circled0a7aa4e-a757-4283-ad82-08b014d92e04" cx="257" cy="122" r="4" fill="#ff8000" style="pointer-events: none;"/><path id="d0a7aa4e-a757-4283-ad82-08b014d92e04" d="M 257 122 L 257.25 121.75 L 257.4375 121.5625 L 257.578125 121.421875 L 257.68359375 121.31640625 L 257.7626953125 121.2373046875 L 257.822021484375 121.177978515625 L 257.86651611328125 121.13348388671875 L 257.89988708496094 121.10011291503906 L 257.9249153137207 121.0750846862793 L 257.9436864852905 121.05631351470947 L 257.9577648639679 121.2922351360321 L 257.9683236479759 121.96917635202408 L 257.97624273598194 122.72688226401806 L 257.98218205198646 123.79516169801354 L 257.98663653898984 125.34637127351016 L 257.9899774042424 127.00977845513262 L 257.9924830531818 129.00733384134946 L 257.99436228988634 131.2555003810121 L 257.99577171741475 133.69162528575907 L 257.99682878806107 136.0187189643193 L 257.9976215910458 138.51403922323948 L 258.24821619328435 140.8855294174296 L 258.43616214496325 142.91414706307222 L 258.57712160872245 144.93561029730415 L 258.68284120654187 146.7017077229781 L 258.76213090490637 148.2762807922336 L 258.8215981786798 149.7072105941752 L 258.86619863400983 151.0304079456314 L 258.8996489755074 152.27280595922355 L 258.92473673163056 153.20460446941766 L 258.9435525487229 153.90345335206325 L 258.95766441154217 154.42759001404744 L 259.2182483086566 154.8206925105356 L 259.4136862314924 155.1155193829017 L 259.5602646736193 155.33663953717627 L 259.6701985052145 155.2524796528822 L 259.75264887891086 154.93935973966165 L 259.81448665918316 154.20451980474624 L 259.8608649943874 153.40338985355967 L 259.89564874579054 152.30254239016975 L 260.1717365593429 150.97690679262732 L 260.37880241950717 149.73268009447048 L 260.5341018146304 148.29951007085288 L 260.90057636097276 146.72463255313966 L 261.4254322707296 145.29347441485476 L 261.8190742030472 143.72010581114108 L 262.3643056522854 142.2900793583558 L 263.02322923921406 140.96755951876685 L 263.51742192941055 139.72566963907514 L 264.1380664470579 138.79425222930635 L 264.6035498352934 137.84568917197976 L 264.95266237647 137.13426687898482 L 265.4644967823525 136.6007001592386 L 266.0983725867644 135.95052511942896 L 266.5737794400733 135.46289383957173 L 267.18033458005493 135.0971703796788 L 267.8852509350412 134.5728777847591 L 268.66393820128087 134.1796583385693 L 269.24795365096065 133.88474375392698 L 269.9359652382205 133.66355781544524 L 270.4519739286654 133.49766836158392 L 271.088980446499 133.37325127118794 L 271.56673533487424 133.52993845339097 L 272.1750515011557 133.64745384004323 L 272.6312886258668 133.73559038003242 L 273.2234664694001 134.05169278502433 L 273.66759985205005 134.53876958876825 L 274.00069988903755 134.9040771915762 L 274.50052491677815 135.42805789368214 L 274.8753936875836 136.07104342026162 L 275.15654526568767 136.8032825651962 L 275.3674089492657 137.60246192389715 L 275.5255567119493 138.45184644292286 L 275.644167533962 139.33888483219215 L 275.7331256504715 140.2541636241441 L 275.7998442378536 141.19062271810807 L 275.8498831783902 142.14296703858105 L 275.88741238379265 143.1072252789358 L 275.9155592878445 143.83041895920184 L 275.68666946588337 144.6228142194014 L 275.2650020994125 145.46711066455106 L 274.6987515745594 146.3503329984133 L 274.02406368091954 147.01274974881 L 273.2680477606897 147.7595623116075 L 272.4510358205173 148.56967173370563 L 271.58827686538797 149.17725380027923 L 270.69120764904096 149.63294035020942 L 269.7684057367807 149.97470526265707 L 268.8263043025855 150.2310289469928 L 267.6197282269392 150.4232717102446 L 266.4647961702044 150.56745378268346 L 265.3485971276533 150.67559033701258 L 264.51144784574 150.50669275275942 L 263.63358588430503 150.38001956456958 L 262.9751894132288 150.28501467342718 L 262.23139205992163 149.96376100507038 L 261.6735440449412 149.72282075380278 L 261.2551580337059 149.54211556535208 L 260.6913685252795 149.40658667401405 L 260.26852639395963 149.05494000551053 L 259.9513947954697 148.7912050041329 L 259.7135460966023 148.59340375309966" fill="transparent" stroke="#ff8000" stroke-width="8" stroke-linejoin="round" stroke-linecap="round" style="pointer-events: none;"/><circle id="circle2e353add-5660-4f05-80d6-01e178656219" cx="284" cy="157" r="4" fill="#ff8000" style="pointer-events: none;"/><path id="2e353add-5660-4f05-80d6-01e178656219" d="M 284 157 L 284 157.25 L 284 157.6875 L 284.25 158.515625 L 284.4375 159.88671875 L 284.578125 161.6650390625 L 284.68359375 163.748779296875 L 284.7626953125 166.31158447265625 L 284.822021484375 168.7336883544922 L 284.86651611328125 171.30026626586914 L 284.89988708496094 173.47519969940186 L 284.9249153137207 175.3563997745514 L 284.9436864852905 176.76729983091354 L 285.2077648639679 177.82547487318516" fill="transparent" stroke="#ff8000" stroke-width="8" stroke-linejoin="round" stroke-linecap="round" style="pointer-events: none;"/><circle id="circle027b74ec-89a0-4f34-b036-6f5984220873" cx="178" cy="122" r="4" fill="#ff8000" style="pointer-events: none;"/><path id="027b74ec-89a0-4f34-b036-6f5984220873" d="M 178 122 L 178 122.5 L 178 123.375 L 178 125.03125 L 178 127.2734375 L 178.25 130.205078125 L 178.4375 133.65380859375 L 178.578125 137.2403564453125 L 178.93359375 141.18026733398438 L 179.2001953125 145.13520050048828 L 179.400146484375 148.8514003753662 L 179.80010986328125 152.13855028152466 L 180.10008239746094 155.1039127111435 L 180.3250617980957 157.57793453335762 L 180.49379634857178 159.68345090001822 L 180.62034726142883 161.26258817501366 L 180.71526044607162 162.44694113126025 L 181.03644533455372 163.33520584844518 L 181.2773340009153 163.7514043863339 L 181.45800050068647 163.81355328975042 L 181.59350037551485 163.6101649673128 L 181.69512528163614 162.7076237254846 L 181.7713439612271 161.53071779411346 L 181.82850797092033 159.6480383455851 L 181.87138097819025 157.73602875918883 L 182.15353573364268 155.55202156939163 L 182.365151800232 153.41401617704372 L 182.773863850174 151.31051213278278 L 183.3303978876305 149.48288409958707 L 183.74779841572288 147.6121630746903 L 184.06084881179217 146.20912230601772 L 184.54563660884412 145.1568417295133 L 184.9092274566331 144.36763129713498 L 185.18192059247482 143.52572347285124 L 185.3864404443561 142.89429260463842 L 185.78983033326708 142.42071945347882 L 186.3423727499503 142.06553959010913 L 186.75677956246273 141.79915469258185 L 187.31758467184704 141.5993660194364 L 187.98818850388528 141.6995245145773 L 188.99114137791395 142.02464338593296 L 189.99335603343548 142.51848253944974 L 190.7450170250766 143.38886190458732 L 191.55876276880747 144.5416464284405 L 192.1690720766056 145.65623482133037 L 192.6268040574542 146.99217611599778 L 192.97010304309066 148.24413208699832 L 193.227577282318 149.68309906524874 L 193.17068296173852 151.01232429893656 L 192.8780122213039 152.2592432242024 L 192.40850916597793 153.6944324181518 L 191.80638187448346 155.02082431361384 L 190.8547864058626 156.26561823521038 L 189.64108980439696 157.1992136764078 L 188.2308173532977 157.89941025730585 L 186.6731130149733 158.4245576929794 L 185.25483476122997 158.81841826973454 L 183.94112607092248 159.1138137023009 L 182.70584455319187 159.33536027672568 L 181.5293834148939 159.25152020754427 L 180.64703756117044 159.18864015565822 L 179.98527817087782 159.14148011674365 L 179.48895862815837 159.10611008755774 L 179.1167189711188 159.07958256566832 L 179.3375392283391 158.80968692425125" fill="transparent" stroke="#ff8000" stroke-width="8" stroke-linejoin="round" stroke-linecap="round" style="pointer-events: none;"/><circle id="circle8d849aa5-9b7a-475e-b62b-a3e6026038b7" cx="200" cy="164" r="4" fill="#ff8000" style="pointer-events: none;"/><path id="8d849aa5-9b7a-475e-b62b-a3e6026038b7" d="M 200 164 L 200.5 163.75 L 201.125 163.5625 L 202.09375 163.421875 L 203.0703125 163.31640625 L 204.052734375 163.2373046875 L 205.03955078125 163.177978515625 L 206.0296630859375 163.13348388671875 L 206.77224731445312 163.10011291503906 L 207.32918548583984 163.3250846862793 L 207.74688911437988 163.99381351470947 L 208.0601668357849 164.7453601360321 L 208.04512512683868 165.80902010202408 L 207.783843845129 167.10676507651806 L 207.33788288384676 168.58007380738854 L 206.50341216288507 170.1850553555414 L 205.6275591221638 171.88879151665606 L 204.72066934162285 173.41659363749204 L 203.79050200621714 175.06244522811903 L 202.84287650466285 176.29683392108927 L 202.13215737849714 177.22262544081696 L 201.59911803387286 177.91696908061272 L 201.19933852540464 178.43772681045954 L 200.89950389405348 178.82829510784467 L 200.9246279205401 179.3712213308835 L 201.19347094040506 179.77841599816261 L 201.6451032053038 180.08381199862197 L 202.48382740397784 180.31285899896648 L 203.3628705529834 180.48464424922486 L 204.52215291473755 180.61348318691864 L 205.64161468605317 180.71011239018898 L 206.7312110145399 180.78258429264173 L 208.04840826090492 180.83693821948128 L 209.0363061956787 180.87770366461098 L 209.77722964675903 180.90827774845823" fill="transparent" stroke="#ff8000" stroke-width="8" stroke-linejoin="round" stroke-linecap="round" style="pointer-events: none;"/><circle id="circleddaaa14b-af04-4a0f-a551-2b19f546c159" cx="108" cy="132" r="4" fill="#ff8000" style="pointer-events: none;"/><path id="ddaaa14b-af04-4a0f-a551-2b19f546c159" d="M 108 132 L 108 132.25 L 108 132.9375 L 108 134.203125 L 108 135.90234375 L 108 138.1767578125 L 108 140.882568359375 L 107.75 143.91192626953125 L 107.5625 146.93394470214844 L 107.421875 149.95045852661133 L 107.31640625 152.9628438949585 L 107.2373046875 155.72213292121887 L 107.177978515625 158.04159969091415 L 107.13348388671875 160.03119976818562 L 107.10011291503906 161.5233998261392 L 107.0750846862793 162.6425498696044 L 107.05631351470947 163.4819124022033 L 107.0422351360321 164.11143430165248 L 107.03167635202408 164.58357572623936 L 107.02375726401806 164.93768179467952 L 107.01781794801354 164.95326134600964 L 107.01336346101016 164.71494600950723 L 107.01002259575762 164.03620950713042 L 107.00751694681821 162.7771571303478 L 107.00563771011366 161.33286784776084 L 107.25422828258525 159.49965088582064 L 107.44067121193893 157.62473816436548 L 107.8305034089542 155.71855362327412 L 108.37287755671565 153.78891521745558 L 108.77965816753674 152.09168641309168 L 109.33474362565255 150.56876480981876 L 109.75105771923941 149.17657360736408 L 110.06329328942957 147.88243020552306 L 110.54746996707217 146.9118226541423 L 110.91060247530413 146.18386699060673 L 111.4329518564781 145.63790024295506 L 111.82471389235857 145.22842518221628 L 112.36853541926894 144.92131888666222 L 113.0264015644517 144.69098916499667 L 113.76980117333878 144.5182418737475 L 114.57735088000408 144.38868140531065 L 115.43301316000306 144.291511053983 L 116.3247598700023 144.46863329048725 L 117.24356990250172 144.85147496786544 L 117.9326774268763 145.38860622589908 L 118.69950807015722 146.0414546694243 L 119.52463105261792 146.78109100206822 L 120.14347328946344 147.58581825155116 L 120.60760496709759 148.43936368866338 L 120.95570372532319 149.32952276649752 L 121.21677779399239 150.24714207487312 L 121.4125833454943 151.18535655615483 L 121.55943750912073 152.13901741711612 L 121.66957813184055 153.1042630628371 L 121.7521835988804 154.07819729712782 L 121.81413769916031 155.05864797284585 L 121.61060327437023 155.79398597963439 L 120.95795245577767 156.5954894847258 L 119.96846434183325 157.69661711354433 L 118.72634825637493 158.77246283515825 L 117.0447611922812 159.8293471263687 L 115.2835708942109 160.87201034477653 L 113.46267817065817 161.6540077585824 L 111.84700862799363 162.4905058189368 L 110.38525647099522 163.11787936420262 L 109.28894235324641 163.58840952315197 L 108.21670676493481 163.94130714236397 L 107.4125300737011 164.20598035677298 L 106.80939755527584 164.15448526757973 L 106.35704816645688 163.8658639506848 L 106.01778612484266 163.3993979630136" fill="transparent" stroke="#ff8000" stroke-width="8" stroke-linejoin="round" stroke-linecap="round" style="pointer-events: none;"/><circle id="circle375b211b-c129-4339-8ddd-bd4900567e7b" cx="125" cy="168" r="4" fill="#ff8000" style="pointer-events: none;"/><path id="375b211b-c129-4339-8ddd-bd4900567e7b" d="M 125 168 L 125.25 168 L 125.6875 167.75 L 126.265625 167.5625 L 126.94921875 167.421875 L 127.7119140625 167.31640625 L 128.783935546875 167.2373046875 L 129.83795166015625 167.177978515625 L 130.8784637451172 167.13348388671875 L 131.9088478088379 167.10011291503906 L 132.68163585662842 167.0750846862793 L 133.5112268924713 167.30631351470947 L 134.13342016935349 167.4797351360321 L 134.6000651270151 167.60980135202408 L 134.95004884526134 167.95735101401806 L 135.212536633946 168.46801326051354 L 135.1594024754595 168.85100994538516 L 134.86955185659463 169.38825745903887 L 134.40216389244597 170.04119309427915 L 133.80162291933448 170.78089482070936 L 133.10121718950086 171.58567111553202 L 132.32591289212564 172.18925333664902 L 131.49443466909423 172.89194000248676 L 130.62082600182066 173.41895500186507 L 129.9656195013655 173.81421625139882 L 129.22421462602412 174.1106621885491 L 128.66816096951808 174.33299664141182 L 128.25112072713856 174.49974748105888 L 127.93834054535392 174.62481061079416 L 127.70375540901544 174.71860795809562 L 127.52781655676158 174.7889559685717 L 127.39586241757118 174.84171697642878 L 127.29689681317839 174.8812877323216 L 127.2226726098838 175.16096579924118 L 127.41700445741284 175.37072434943087 L 127.56275334305963 175.52804326207314 L 127.92206500729472 175.64603244655484 L 128.44154875547105 175.98452433491613 L 129.08116156660327 176.2383932511871 L 129.81087117495247 176.42879493839033 L 130.60815338121435 176.57159620379275 L 131.20611503591076 176.92869715284456 L 131.90458627693306 177.19652286463344 L 132.4284397076998 177.6473921484751 L 133.07132978077485 177.98554411135632 L 133.55349733558114 178.48915808351722 L 133.91512300168586 178.86686856263793 L 134.1863422512644 179.40015142197845 L 134.3897566884483 179.80011356648384 L 134.54231751633623 180.3500851748629 L 134.65673813725218 180.76256388114717 L 134.49255360293913 181.3219229108604 L 134.11941520220435 181.9914421831453 L 133.58956140165327 182.74358163735897 L 132.69217105123994 183.30768622801924 L 131.76912828842995 183.7307646710144 L 130.82684621632245 184.0480735032608 L 129.62013466224184 184.2860551274456 L 128.46510099668137 184.4645413455842 L 127.34882574751103 184.59840600918815 L 126.26161931063328 184.44880450689112" fill="transparent" stroke="#ff8000" stroke-width="8" stroke-linejoin="round" stroke-linecap="round" style="pointer-events: none;"/></svg>
